<svg width="8" height="6" viewBox="0 0 8 6" fill="none" xmlns="http://www.w3.org/2000/svg">
<path d="M7.78037 1.6888C7.97923 1.41513 7.97778 0.973388 7.77714 0.702148C7.57651 0.430907 7.25265 0.432879 7.05379 0.70655L5.86215 2.34652C5.37853 3.0121 5.04569 3.46866 4.76367 3.77759C4.48972 4.07768 4.31376 4.18063 4.15616 4.20803C4.05721 4.22523 3.95708 4.22523 3.85813 4.20803C3.70054 4.18063 3.52457 4.07768 3.25062 3.77759C2.9686 3.46866 2.63576 3.0121 2.15214 2.34652L0.960495 0.70655C0.761639 0.432879 0.437785 0.430907 0.237147 0.702148C0.0365081 0.973388 0.0350633 1.41513 0.233919 1.6888L1.44704 3.35833C1.90393 3.98713 2.27735 4.50106 2.61007 4.86553C2.95606 5.24453 3.30724 5.51889 3.72878 5.59218C3.91362 5.62431 4.10067 5.62431 4.28551 5.59218C4.70705 5.51889 5.05824 5.24453 5.40422 4.86553C5.73695 4.50106 6.11036 3.98714 6.56725 3.35833L7.78037 1.6888Z" fill="white"/>
<path d="M7.78037 1.6888C7.97923 1.41513 7.97778 0.973388 7.77714 0.702148C7.57651 0.430907 7.25265 0.432879 7.05379 0.70655L5.86215 2.34652C5.37853 3.0121 5.04569 3.46866 4.76367 3.77759C4.48972 4.07768 4.31376 4.18063 4.15616 4.20803C4.05721 4.22523 3.95708 4.22523 3.85813 4.20803C3.70054 4.18063 3.52457 4.07768 3.25062 3.77759C2.9686 3.46866 2.63576 3.0121 2.15214 2.34652L0.960495 0.70655C0.761639 0.432879 0.437785 0.430907 0.237147 0.702148C0.0365081 0.973388 0.0350633 1.41513 0.233919 1.6888L1.44704 3.35833C1.90393 3.98713 2.27735 4.50106 2.61007 4.86553C2.95606 5.24453 3.30724 5.51889 3.72878 5.59218C3.91362 5.62431 4.10067 5.62431 4.28551 5.59218C4.70705 5.51889 5.05824 5.24453 5.40422 4.86553C5.73695 4.50106 6.11036 3.98714 6.56725 3.35833L7.78037 1.6888Z" fill="url(#paint0_linear_1030_6368)"/>
<path d="M7.78037 1.6888C7.97923 1.41513 7.97778 0.973388 7.77714 0.702148C7.57651 0.430907 7.25265 0.432879 7.05379 0.70655L5.86215 2.34652C5.37853 3.0121 5.04569 3.46866 4.76367 3.77759C4.48972 4.07768 4.31376 4.18063 4.15616 4.20803C4.05721 4.22523 3.95708 4.22523 3.85813 4.20803C3.70054 4.18063 3.52457 4.07768 3.25062 3.77759C2.9686 3.46866 2.63576 3.0121 2.15214 2.34652L0.960495 0.70655C0.761639 0.432879 0.437785 0.430907 0.237147 0.702148C0.0365081 0.973388 0.0350633 1.41513 0.233919 1.6888L1.44704 3.35833C1.90393 3.98713 2.27735 4.50106 2.61007 4.86553C2.95606 5.24453 3.30724 5.51889 3.72878 5.59218C3.91362 5.62431 4.10067 5.62431 4.28551 5.59218C4.70705 5.51889 5.05824 5.24453 5.40422 4.86553C5.73695 4.50106 6.11036 3.98714 6.56725 3.35833L7.78037 1.6888Z" fill="url(#paint1_linear_1030_6368)" fill-opacity="0.2" style="mix-blend-mode:lighten"/>
<defs>
<linearGradient id="paint0_linear_1030_6368" x1="-21.4821" y1="5.74419" x2="-14.3421" y2="-11.4446" gradientUnits="userSpaceOnUse">
<stop stop-color="#272755"/>
<stop offset="0.973958" stop-color="#272755" stop-opacity="0"/>
</linearGradient>
<linearGradient id="paint1_linear_1030_6368" x1="7.45971" y1="0.717442" x2="6.96596" y2="5.9582" gradientUnits="userSpaceOnUse">
<stop stop-color="#FF55FF"/>
<stop offset="1" stop-color="#05CCFF"/>
</linearGradient>
</defs>
</svg>
