<svg width="21" height="20" viewBox="0 0 21 20" fill="none" xmlns="http://www.w3.org/2000/svg">
<path d="M17.3197 9.49556C17.511 9.36225 17.6918 9.21449 17.8605 9.05356C18.3714 8.54012 18.7598 7.918 18.9967 7.23356C19.0353 7.12477 19.0422 7.00727 19.0168 6.89469C18.9913 6.78211 18.9345 6.67904 18.8529 6.59742C18.7712 6.5158 18.6682 6.45898 18.5556 6.43352C18.443 6.40805 18.3255 6.415 18.2167 6.45356C17.5677 6.68572 16.8661 6.72883 16.1935 6.57787C15.521 6.42691 14.9051 6.08809 14.4176 5.60083C13.93 5.11356 13.5909 4.49788 13.4395 3.8254C13.2882 3.15293 13.3309 2.45131 13.5627 1.80216C13.6024 1.6933 13.6102 1.57537 13.5851 1.46224C13.5601 1.34911 13.5033 1.24548 13.4213 1.16355C13.3394 1.08162 13.2358 1.02478 13.1226 0.999736C13.0095 0.974689 12.8916 0.982469 12.7827 1.02216C11.6192 1.42064 10.6529 2.25035 10.0831 3.34023C9.51321 4.43011 9.38323 5.69708 9.71992 6.87996C8.90528 6.98396 8.12038 7.25294 7.41318 7.67047C6.70598 8.088 6.09131 8.64531 5.60672 9.30836C4.96168 9.21482 4.30378 9.2703 3.68352 9.47056C3.06325 9.67081 2.49712 10.0105 2.02855 10.4636C1.55999 10.9167 1.20146 11.4711 0.980481 12.0843C0.759501 12.6974 0.681945 13.3531 0.753765 14.0009C0.825585 14.6487 1.04487 15.2715 1.3948 15.8214C1.74472 16.3713 2.21598 16.8337 2.77241 17.1731C3.32883 17.5126 3.95563 17.72 4.60469 17.7796C5.25376 17.8391 5.90783 17.7491 6.51672 17.5166C7.6144 18.4832 9.02687 19.0165 10.4895 19.0165C11.9522 19.0165 13.3646 18.4832 14.4623 17.5166C14.9474 17.7045 15.4631 17.8006 15.9833 17.8C16.9967 17.8034 17.978 17.445 18.7506 16.7892C19.5232 16.1334 20.0363 15.2233 20.1974 14.2228C20.3586 13.2223 20.1572 12.1972 19.6297 11.3319C19.1021 10.4667 18.2829 9.81826 17.3197 9.50336V9.49556ZM11.8285 3.02156C11.9269 2.92354 12.0311 2.83151 12.1405 2.74596C12.0992 3.43108 12.2037 4.11717 12.4471 4.75891C12.6906 5.40065 13.0674 5.98344 13.5527 6.46877C14.038 6.9541 14.6208 7.33093 15.2626 7.57436C15.9043 7.8178 16.5904 7.9223 17.2755 7.88096C16.7676 8.52338 16.0528 8.96992 15.2527 9.14456C14.7387 8.48876 14.0945 7.94647 13.3607 7.5518C12.6268 7.15714 11.8192 6.91865 10.9887 6.85136C10.7505 6.19914 10.703 5.49258 10.8517 4.81435C11.0005 4.13611 11.3393 3.51426 11.8285 3.02156ZM15.9885 16.5728C15.3618 16.5725 14.7505 16.3781 14.2387 16.0164C13.7872 16.5712 13.2177 17.0185 12.5717 17.3258C11.9256 17.633 11.2192 17.7924 10.5038 17.7924C9.78844 17.7924 9.08205 17.633 8.43599 17.3258C7.78993 17.0185 7.22045 16.5712 6.76892 16.0164C6.33601 16.3214 5.83107 16.5084 5.30388 16.5588C4.77669 16.6092 4.24546 16.5214 3.76256 16.304C3.27967 16.0865 2.86178 15.747 2.5501 15.3188C2.23842 14.8906 2.04371 14.3886 1.98517 13.8623C1.92663 13.3359 2.00628 12.8034 2.21626 12.3172C2.42625 11.831 2.75932 11.408 3.18264 11.0897C3.60596 10.7715 4.10491 10.5691 4.63029 10.5025C5.15568 10.4358 5.68936 10.5073 6.17872 10.7098C6.56372 9.95391 7.13957 9.31179 7.8492 8.84707C8.55883 8.38234 9.37759 8.11115 10.2243 8.06036C10.3153 8.06036 10.4063 8.04216 10.4999 8.04216C11.3433 8.04758 12.1707 8.27301 12.9003 8.69617C13.6299 9.11933 14.2364 9.72557 14.6599 10.455C14.7119 10.5408 14.7691 10.6214 14.8133 10.715C15.2298 10.5427 15.6794 10.4649 16.1295 10.4873C16.5797 10.5097 17.0193 10.6317 17.4166 10.8445C17.814 11.0573 18.1592 11.3556 18.4273 11.7178C18.6955 12.0801 18.8799 12.4974 18.9674 12.9395C19.0548 13.3817 19.0431 13.8378 18.933 14.2748C18.823 14.7119 18.6173 15.1191 18.3309 15.4672C18.0445 15.8152 17.6844 16.0953 17.2767 16.2874C16.8689 16.4795 16.4236 16.5787 15.9729 16.578L15.9885 16.5728Z" fill="#CDCDE4"/>
</svg>
