<svg width="20" height="16" viewBox="0 0 20 16" fill="none" xmlns="http://www.w3.org/2000/svg">
<path d="M19.8567 5.2649C19.8553 4.36476 19.4971 3.50187 18.8606 2.86537C18.2241 2.22887 17.3612 1.87068 16.4611 1.8693C16.3701 1.8693 16.2791 1.8693 16.2011 1.8693C15.764 1.32389 15.21 0.883663 14.58 0.581152C13.9499 0.278641 13.26 0.121582 12.5611 0.121582C11.8622 0.121582 11.1722 0.278641 10.5422 0.581152C9.91211 0.883663 9.3581 1.32389 8.92107 1.8693C8.83007 1.8693 8.73907 1.8693 8.64547 1.8693C7.74782 1.87411 6.88854 2.2339 6.25525 2.8701C5.62197 3.50631 5.26615 4.36724 5.26547 5.2649C5.26868 5.45682 5.28781 5.64815 5.32267 5.8369C5.30187 5.8629 5.27587 5.8889 5.25767 5.9149C5.05858 5.88811 4.85796 5.87421 4.65707 5.8733C4.08808 5.85925 3.52204 5.95919 2.99226 6.16723C2.46248 6.37526 1.97968 6.68719 1.57228 7.08465C1.16489 7.48211 0.841133 7.95707 0.620084 8.48155C0.399034 9.00603 0.285156 9.56944 0.285156 10.1386C0.285156 10.7078 0.399034 11.2712 0.620084 11.7957C0.841133 12.3201 1.16489 12.7951 1.57228 13.1926C1.97968 13.59 2.46248 13.9019 2.99226 14.11C3.52204 14.318 4.08808 14.418 4.65707 14.4039C5.17342 14.4047 5.68549 14.3104 6.16767 14.1257C7.2661 15.0908 8.67829 15.6231 10.1405 15.6231C11.6027 15.6231 13.0148 15.0908 14.1133 14.1257C14.5954 14.3106 15.1075 14.405 15.6239 14.4039C16.7548 14.4032 17.8392 13.9538 18.6391 13.1544C19.4391 12.355 19.8891 11.2708 19.8905 10.1399C19.8904 9.1965 19.5725 8.28061 18.9883 7.5399C19.5503 6.9158 19.8599 6.10479 19.8567 5.2649ZM15.5901 13.2001C14.9631 13.199 14.3518 13.0038 13.8403 12.6411C13.3879 13.1971 12.817 13.645 12.1694 13.9522C11.5219 14.2595 10.8138 14.4183 10.0971 14.417C9.3803 14.4158 8.67285 14.2545 8.02633 13.945C7.37982 13.6355 6.81055 13.1856 6.36007 12.6281C5.92734 12.9324 5.4228 13.1187 4.89617 13.1686C4.36954 13.2185 3.83898 13.1303 3.35679 12.9128C2.87459 12.6953 2.4574 12.3558 2.14632 11.928C1.83524 11.5001 1.64101 10.9986 1.58276 10.4728C1.52451 9.94703 1.60426 9.41515 1.81415 8.92957C2.02403 8.444 2.35681 8.02149 2.7797 7.70367C3.20258 7.38586 3.70098 7.18372 4.22577 7.11716C4.75056 7.0506 5.28364 7.12192 5.77247 7.3241C5.79327 7.2825 5.81927 7.2461 5.84007 7.2071C6.05053 6.81805 6.31294 6.45942 6.62007 6.1411C7.06752 5.67147 7.60562 5.29752 8.20179 5.04189C8.79796 4.78626 9.43981 4.65427 10.0885 4.6539C10.9868 4.65485 11.8673 4.90493 12.632 5.37633C13.3967 5.84772 14.0156 6.52197 14.4201 7.3241C14.6395 7.23713 14.868 7.1752 15.1013 7.1395L15.5797 7.0927C16.3896 7.09132 17.1668 7.41173 17.7405 7.98344C18.3141 8.55514 18.6372 9.33131 18.6386 10.1412C18.6399 10.9511 18.3195 11.7284 17.7478 12.302C17.1761 12.8757 16.4 13.1987 15.5901 13.2001ZM18.0887 6.7001C17.3645 6.16693 16.4893 5.87824 15.5901 5.8759C15.3892 5.87673 15.1886 5.89062 14.9895 5.9175C14.0471 4.626 12.6307 3.76125 11.0512 3.51313C9.47183 3.265 7.8585 3.65378 6.56547 4.5941C6.70604 4.15826 6.98099 3.77811 7.35091 3.50814C7.72083 3.23817 8.16672 3.09226 8.62467 3.0913C8.90929 3.09006 9.19129 3.14575 9.45407 3.2551C9.74142 2.68209 10.1825 2.2003 10.728 1.86361C11.2735 1.52692 11.9018 1.34861 12.5429 1.34861C13.1839 1.34861 13.8123 1.52692 14.3578 1.86361C14.9033 2.2003 15.3443 2.68209 15.6317 3.2551C16.0853 3.06684 16.5894 3.03797 17.0616 3.17321C17.5338 3.30845 17.9461 3.59981 18.2313 3.99969C18.5165 4.39957 18.6577 4.88434 18.6318 5.37482C18.6059 5.8653 18.4144 6.3325 18.0887 6.7001Z" fill="#FBFBFB"/>
</svg>
