<svg width="16" height="16" viewBox="0 0 16 16" fill="none" xmlns="http://www.w3.org/2000/svg">
<path d="M13.4673 12.8469L13.4651 12.8492C12.6904 13.6363 11.7479 14.2382 10.708 14.6099C9.66798 14.9815 8.55747 15.1133 7.45939 14.9954C6.36132 14.8776 5.30409 14.513 4.36671 13.9291C3.42934 13.3451 2.63605 12.5569 2.04615 11.6233C1.45625 10.6896 1.08498 9.63474 0.960095 8.53744C0.835209 7.44015 0.959935 6.32881 1.32495 5.28649C1.68997 4.24418 2.28583 3.29784 3.06802 2.51819C3.85021 1.73855 4.79848 1.14576 5.84198 0.784139L5.8432 0.783715C5.92857 0.753881 6.02064 0.748765 6.1088 0.768954C6.19696 0.789144 6.27762 0.833819 6.34151 0.897837C6.40539 0.961854 6.4499 1.04261 6.4699 1.13081C6.48976 1.21835 6.48468 1.30969 6.45526 1.39447C6.04502 2.52579 5.96553 3.75058 6.22611 4.92547C6.48692 6.10135 7.07756 7.17849 7.9288 8.03061C8.78003 8.88273 9.85656 9.4745 11.0322 9.73653C12.2066 9.9983 13.4312 9.92016 14.5627 9.51131C14.6473 9.48233 14.7384 9.47754 14.8256 9.49752C14.9136 9.51767 14.9941 9.56222 15.0579 9.62604C15.1217 9.68987 15.1663 9.77039 15.1864 9.85838C15.2066 9.94637 15.2015 10.0382 15.1719 10.1235L15.1718 10.1237C14.8156 11.148 14.233 12.0788 13.4673 12.8469Z" stroke="#CDCDE4"/>
</svg>
