<svg width="19" height="24" viewBox="0 0 19 24" fill="none" xmlns="http://www.w3.org/2000/svg">
<path d="M2.14556 17.1985C2.42636 16.4785 2.27036 13.7749 2.27036 13.7749C2.27036 13.7749 0.65036 14.9449 0.35996 15.6793C0.231235 16.032 0.200015 16.4465 0.273024 16.8334C0.346034 17.2203 0.51743 17.5487 0.7503 17.7479C0.98317 17.9471 1.25888 18.0011 1.51806 17.8984C1.77723 17.7956 1.99913 17.5443 2.13596 17.1985H2.14556Z" fill="#FBFBFB"/>
<path d="M11.2655 20.7623C11.1368 21.115 11.1055 21.5295 11.1785 21.9164C11.2516 22.3033 11.4229 22.6317 11.6558 22.8309C11.8887 23.0301 12.1644 23.0842 12.4236 22.9814C12.6827 22.8786 12.9046 22.6273 13.0415 22.2815C13.3223 21.5615 13.1663 18.8579 13.1663 18.8579C13.1663 18.8579 11.5463 20.0279 11.2655 20.7623Z" fill="#FBFBFB"/>
<path d="M2.54643 12.9322C2.6373 13.0126 2.74092 13.0549 2.84643 13.0546C2.9516 13.0546 3.05491 13.013 3.14593 12.934C3.23695 12.855 3.31246 12.7414 3.36483 12.6046L7.20483 2.66857C7.24991 2.56622 7.28057 2.45112 7.29491 2.33034C7.30926 2.20957 7.307 2.08567 7.28826 1.96626C7.26952 1.84684 7.2347 1.73444 7.18595 1.63594C7.1372 1.53745 7.07553 1.45494 7.00475 1.39349C6.93396 1.33205 6.85555 1.29296 6.77432 1.27863C6.6931 1.26429 6.61078 1.27502 6.53242 1.31014C6.45406 1.34527 6.38131 1.40406 6.31865 1.48289C6.25599 1.56172 6.20473 1.65894 6.16803 1.76857L2.32803 11.7046C2.28813 11.8065 2.26213 11.9193 2.25152 12.0364C2.2409 12.1535 2.2459 12.2726 2.26622 12.3868C2.28654 12.501 2.32177 12.608 2.36987 12.7016C2.41797 12.7953 2.47798 12.8736 2.54643 12.9322Z" fill="#FBFBFB"/>
<path d="M17.88 6.95982C17.812 6.89997 17.7368 6.86096 17.6588 6.84505C17.5807 6.82913 17.5013 6.83663 17.4251 6.8671C17.349 6.89758 17.2777 6.95042 17.2153 7.02258C17.1529 7.09473 17.1006 7.18475 17.0616 7.28742L13.2216 17.2234C13.1817 17.3253 13.1557 17.4381 13.1451 17.5553C13.1345 17.6724 13.1395 17.7915 13.1598 17.9057C13.1801 18.0199 13.2153 18.1269 13.2634 18.2205C13.3115 18.3141 13.3715 18.3925 13.44 18.451C13.5309 18.5315 13.6345 18.5737 13.74 18.5734C13.8458 18.5737 13.9498 18.5319 14.0413 18.4522C14.1328 18.3725 14.2085 18.2578 14.2608 18.1198L18.1008 8.18382C18.1402 8.08183 18.1658 7.96915 18.176 7.85226C18.1862 7.73538 18.1809 7.61661 18.1604 7.50281C18.1399 7.38901 18.1045 7.28244 18.0564 7.18925C18.0083 7.09605 17.9483 7.01807 17.88 6.95982Z" fill="#FBFBFB"/>
<path d="M12.2183 4.66709C12.1501 4.60716 12.0747 4.56808 11.9965 4.55212C11.9182 4.53616 11.8386 4.54362 11.7623 4.57409C11.686 4.60455 11.6144 4.65741 11.5518 4.7296C11.4892 4.80179 11.4367 4.89189 11.3975 4.99469L5.69506 19.7547C5.65391 19.8576 5.6269 19.9718 5.61562 20.0906C5.60433 20.2094 5.609 20.3304 5.62935 20.4465C5.6497 20.5625 5.68532 20.6713 5.73411 20.7664C5.7829 20.8615 5.84388 20.941 5.91346 21.0003C6.00507 21.0776 6.10834 21.1185 6.21346 21.1191C6.3187 21.1194 6.42216 21.0784 6.51353 21C6.60491 20.9217 6.68101 20.8088 6.73426 20.6727L12.4367 5.88029C12.5129 5.67529 12.5328 5.43369 12.492 5.20704C12.4512 4.98039 12.353 4.78663 12.2183 4.66709Z" fill="#FBFBFB"/>
<path d="M10.5216 0.717106C10.384 0.597708 10.2204 0.564764 10.0667 0.625457C9.91294 0.68615 9.78141 0.835556 9.70079 1.04111L1.39439 22.3999C1.35472 22.5017 1.32883 22.6143 1.31822 22.7312C1.3076 22.848 1.31246 22.9669 1.33253 23.081C1.3526 23.195 1.38747 23.302 1.43515 23.3958C1.48283 23.4896 1.54238 23.5683 1.61039 23.6275C1.70147 23.7107 1.80616 23.7543 1.91279 23.7535C2.01758 23.7528 2.12045 23.7113 2.21133 23.6331C2.30221 23.5548 2.37797 23.4425 2.43119 23.3071L10.7376 1.94831C10.7773 1.8462 10.8033 1.73335 10.8139 1.6162C10.8245 1.49906 10.8197 1.37991 10.7996 1.26558C10.7796 1.15124 10.7447 1.04396 10.697 0.949847C10.6493 0.855738 10.5897 0.776651 10.5216 0.717106Z" fill="#FBFBFB"/>
<path d="M17.0305 0.504855C16.9615 0.443919 16.8851 0.404221 16.8058 0.388081C16.7264 0.371941 16.6458 0.379683 16.5684 0.410855C16.4911 0.442027 16.4187 0.496003 16.3555 0.569628C16.2922 0.643253 16.2394 0.735051 16.2001 0.839655L7.90329 22.1877C7.82309 22.3939 7.80079 22.6395 7.8413 22.8704C7.8818 23.1013 7.9818 23.2986 8.11929 23.4189C8.25678 23.5392 8.42049 23.5726 8.57442 23.5118C8.72835 23.4511 8.85989 23.3011 8.94009 23.0949L17.2465 1.73605C17.2865 1.63407 17.3127 1.5212 17.3235 1.40396C17.3344 1.28671 17.3296 1.16741 17.3095 1.05295C17.2894 0.93848 17.2544 0.831113 17.2065 0.737041C17.1587 0.64297 17.0988 0.564056 17.0305 0.504855Z" fill="#FBFBFB"/>
</svg>
