<svg width="15" height="173" viewBox="0 0 15 173" fill="none" xmlns="http://www.w3.org/2000/svg">
<line y1="-0.25" x2="79" y2="-0.25" transform="matrix(0 -1 -1 0 7.5 79)" stroke="url(#paint0_linear_112_4527)" stroke-width="0.5" stroke-dasharray="1 1"/>
<path fill-rule="evenodd" clip-rule="evenodd" d="M7.75 79.25C11.616 79.25 14.75 82.384 14.75 86.25C14.75 90.116 11.616 93.25 7.75 93.25C3.88401 93.25 0.75 90.116 0.75 86.25C0.75 82.384 3.88401 79.25 7.75 79.25ZM13.7733 86.25C13.7733 82.9234 11.0766 80.2267 7.75 80.2267C4.42345 80.2267 1.72674 82.9234 1.72674 86.25C1.72674 89.5766 4.42345 92.2733 7.75 92.2733C11.0766 92.2733 13.7733 89.5766 13.7733 86.25Z" fill="#605080"/>
<path d="M8.66784 83.6037C8.85941 83.4645 9.16863 83.4656 9.3585 83.606C9.54836 83.7464 9.54698 83.9731 9.35541 84.1123L8.20744 84.9465C7.74153 85.285 7.42194 85.518 7.20569 85.7154C6.99562 85.9072 6.92356 86.0304 6.90438 86.1407C6.89234 86.21 6.89234 86.28 6.90438 86.3493C6.92356 86.4596 6.99563 86.5828 7.20569 86.7746C7.42194 86.972 7.74153 87.205 8.20743 87.5435L9.35541 88.3777C9.54698 88.5169 9.54836 88.7436 9.3585 88.884C9.16863 89.0244 8.85941 89.0255 8.66784 88.8863L7.49917 88.0371C7.05901 87.7173 6.69925 87.4559 6.44413 87.223C6.17883 86.9808 5.98678 86.7349 5.93548 86.4399C5.91298 86.3105 5.91298 86.1795 5.93548 86.0501C5.98678 85.7551 6.17883 85.5092 6.44413 85.267C6.69926 85.0341 7.059 84.7727 7.49917 84.4529L8.66784 83.6037Z" fill="white"/>
<path d="M8.66784 83.6037C8.85941 83.4645 9.16863 83.4656 9.3585 83.606C9.54836 83.7464 9.54698 83.9731 9.35541 84.1123L8.20744 84.9465C7.74153 85.285 7.42194 85.518 7.20569 85.7154C6.99562 85.9072 6.92356 86.0304 6.90438 86.1407C6.89234 86.21 6.89234 86.28 6.90438 86.3493C6.92356 86.4596 6.99563 86.5828 7.20569 86.7746C7.42194 86.972 7.74153 87.205 8.20743 87.5435L9.35541 88.3777C9.54698 88.5169 9.54836 88.7436 9.3585 88.884C9.16863 89.0244 8.85941 89.0255 8.66784 88.8863L7.49917 88.0371C7.05901 87.7173 6.69925 87.4559 6.44413 87.223C6.17883 86.9808 5.98678 86.7349 5.93548 86.4399C5.91298 86.3105 5.91298 86.1795 5.93548 86.0501C5.98678 85.7551 6.17883 85.5092 6.44413 85.267C6.69926 85.0341 7.059 84.7727 7.49917 84.4529L8.66784 83.6037Z" fill="url(#paint1_linear_112_4527)"/>
<path d="M8.66784 83.6037C8.85941 83.4645 9.16863 83.4656 9.3585 83.606C9.54836 83.7464 9.54698 83.9731 9.35541 84.1123L8.20744 84.9465C7.74153 85.285 7.42194 85.518 7.20569 85.7154C6.99562 85.9072 6.92356 86.0304 6.90438 86.1407C6.89234 86.21 6.89234 86.28 6.90438 86.3493C6.92356 86.4596 6.99563 86.5828 7.20569 86.7746C7.42194 86.972 7.74153 87.205 8.20743 87.5435L9.35541 88.3777C9.54698 88.5169 9.54836 88.7436 9.3585 88.884C9.16863 89.0244 8.85941 89.0255 8.66784 88.8863L7.49917 88.0371C7.05901 87.7173 6.69925 87.4559 6.44413 87.223C6.17883 86.9808 5.98678 86.7349 5.93548 86.4399C5.91298 86.3105 5.91298 86.1795 5.93548 86.0501C5.98678 85.7551 6.17883 85.5092 6.44413 85.267C6.69926 85.0341 7.059 84.7727 7.49917 84.4529L8.66784 83.6037Z" fill="url(#paint2_linear_112_4527)" fill-opacity="0.2" style="mix-blend-mode:lighten"/>
<line x1="7.75" y1="94" x2="7.75" y2="173" stroke="url(#paint3_linear_112_4527)" stroke-width="0.5" stroke-dasharray="1 1"/>
<defs>
<linearGradient id="paint0_linear_112_4527" x1="1.80839e-08" y1="1.00024" x2="79" y2="1.00024" gradientUnits="userSpaceOnUse">
<stop stop-color="#605080"/>
<stop offset="1" stop-color="#605080" stop-opacity="0"/>
</linearGradient>
<linearGradient id="paint1_linear_112_4527" x1="5.82907" y1="104.087" x2="17.8612" y2="99.0894" gradientUnits="userSpaceOnUse">
<stop stop-color="#272755"/>
<stop offset="0.973958" stop-color="#272755" stop-opacity="0"/>
</linearGradient>
<linearGradient id="paint2_linear_112_4527" x1="9.34779" y1="83.8282" x2="5.67926" y2="84.1738" gradientUnits="userSpaceOnUse">
<stop stop-color="#FF55FF"/>
<stop offset="1" stop-color="#05CCFF"/>
</linearGradient>
<linearGradient id="paint3_linear_112_4527" x1="6.49976" y1="94" x2="6.49976" y2="173" gradientUnits="userSpaceOnUse">
<stop stop-color="#605080"/>
<stop offset="1" stop-color="#605080" stop-opacity="0"/>
</linearGradient>
</defs>
</svg>
