<svg width="15" height="173" viewBox="0 0 15 173" fill="none" xmlns="http://www.w3.org/2000/svg">
<line x1="7.25" y1="79" x2="7.25" stroke="url(#paint0_linear_114_4347)" stroke-width="0.5" stroke-dasharray="1 1"/>
<path fill-rule="evenodd" clip-rule="evenodd" d="M7.25 79.25C3.38401 79.25 0.25 82.384 0.25 86.25C0.25 90.116 3.38401 93.25 7.25 93.25C11.116 93.25 14.25 90.116 14.25 86.25C14.25 82.384 11.116 79.25 7.25 79.25ZM1.22674 86.25C1.22674 82.9234 3.92345 80.2267 7.25 80.2267C10.5766 80.2267 13.2733 82.9234 13.2733 86.25C13.2733 89.5766 10.5766 92.2733 7.25 92.2733C3.92345 92.2733 1.22674 89.5766 1.22674 86.25Z" fill="#605080"/>
<path d="M6.33216 83.6037C6.14059 83.4645 5.83137 83.4656 5.6415 83.606C5.45164 83.7464 5.45302 83.9731 5.64459 84.1123L6.79256 84.9465C7.25847 85.285 7.57806 85.518 7.79431 85.7154C8.00438 85.9072 8.07644 86.0304 8.09562 86.1407C8.10766 86.21 8.10766 86.28 8.09562 86.3493C8.07644 86.4596 8.00437 86.5828 7.79431 86.7746C7.57806 86.972 7.25847 87.205 6.79257 87.5435L5.64459 88.3777C5.45302 88.5169 5.45164 88.7436 5.6415 88.884C5.83137 89.0244 6.14059 89.0255 6.33216 88.8863L7.50083 88.0371C7.94099 87.7173 8.30075 87.4559 8.55587 87.223C8.82117 86.9808 9.01322 86.7349 9.06452 86.4399C9.08702 86.3105 9.08702 86.1795 9.06452 86.0501C9.01322 85.7551 8.82117 85.5092 8.55587 85.267C8.30074 85.0341 7.941 84.7727 7.50083 84.4529L6.33216 83.6037Z" fill="white"/>
<path d="M6.33216 83.6037C6.14059 83.4645 5.83137 83.4656 5.6415 83.606C5.45164 83.7464 5.45302 83.9731 5.64459 84.1123L6.79256 84.9465C7.25847 85.285 7.57806 85.518 7.79431 85.7154C8.00438 85.9072 8.07644 86.0304 8.09562 86.1407C8.10766 86.21 8.10766 86.28 8.09562 86.3493C8.07644 86.4596 8.00437 86.5828 7.79431 86.7746C7.57806 86.972 7.25847 87.205 6.79257 87.5435L5.64459 88.3777C5.45302 88.5169 5.45164 88.7436 5.6415 88.884C5.83137 89.0244 6.14059 89.0255 6.33216 88.8863L7.50083 88.0371C7.94099 87.7173 8.30075 87.4559 8.55587 87.223C8.82117 86.9808 9.01322 86.7349 9.06452 86.4399C9.08702 86.3105 9.08702 86.1795 9.06452 86.0501C9.01322 85.7551 8.82117 85.5092 8.55587 85.267C8.30074 85.0341 7.941 84.7727 7.50083 84.4529L6.33216 83.6037Z" fill="url(#paint1_linear_114_4347)"/>
<path d="M6.33216 83.6037C6.14059 83.4645 5.83137 83.4656 5.6415 83.606C5.45164 83.7464 5.45302 83.9731 5.64459 84.1123L6.79256 84.9465C7.25847 85.285 7.57806 85.518 7.79431 85.7154C8.00438 85.9072 8.07644 86.0304 8.09562 86.1407C8.10766 86.21 8.10766 86.28 8.09562 86.3493C8.07644 86.4596 8.00437 86.5828 7.79431 86.7746C7.57806 86.972 7.25847 87.205 6.79257 87.5435L5.64459 88.3777C5.45302 88.5169 5.45164 88.7436 5.6415 88.884C5.83137 89.0244 6.14059 89.0255 6.33216 88.8863L7.50083 88.0371C7.94099 87.7173 8.30075 87.4559 8.55587 87.223C8.82117 86.9808 9.01322 86.7349 9.06452 86.4399C9.08702 86.3105 9.08702 86.1795 9.06452 86.0501C9.01322 85.7551 8.82117 85.5092 8.55587 85.267C8.30074 85.0341 7.941 84.7727 7.50083 84.4529L6.33216 83.6037Z" fill="url(#paint2_linear_114_4347)" fill-opacity="0.2" style="mix-blend-mode:lighten"/>
<line y1="-0.25" x2="79" y2="-0.25" transform="matrix(0 1 1 0 7.5 94)" stroke="url(#paint3_linear_114_4347)" stroke-width="0.5" stroke-dasharray="1 1"/>
<defs>
<linearGradient id="paint0_linear_114_4347" x1="8.50024" y1="79" x2="8.50024" y2="-1.80839e-08" gradientUnits="userSpaceOnUse">
<stop stop-color="#605080"/>
<stop offset="1" stop-color="#605080" stop-opacity="0"/>
</linearGradient>
<linearGradient id="paint1_linear_114_4347" x1="9.17093" y1="104.087" x2="-2.86121" y2="99.0894" gradientUnits="userSpaceOnUse">
<stop stop-color="#272755"/>
<stop offset="0.973958" stop-color="#272755" stop-opacity="0"/>
</linearGradient>
<linearGradient id="paint2_linear_114_4347" x1="5.65221" y1="83.8282" x2="9.32074" y2="84.1738" gradientUnits="userSpaceOnUse">
<stop stop-color="#FF55FF"/>
<stop offset="1" stop-color="#05CCFF"/>
</linearGradient>
<linearGradient id="paint3_linear_114_4347" x1="1.80839e-08" y1="1.00024" x2="79" y2="1.00024" gradientUnits="userSpaceOnUse">
<stop stop-color="#605080"/>
<stop offset="1" stop-color="#605080" stop-opacity="0"/>
</linearGradient>
</defs>
</svg>
