<svg width="22" height="22" viewBox="0 0 22 22" fill="none" xmlns="http://www.w3.org/2000/svg">
<path d="M14.6363 11.1137C14.2221 11.1137 13.8863 11.4494 13.8863 11.8637C13.8863 12.2779 14.2221 12.6137 14.6363 12.6137H17.3636C17.7778 12.6137 18.1136 12.2779 18.1136 11.8637C18.1136 11.4494 17.7778 11.1137 17.3636 11.1137H14.6363Z" fill="white"/>
<path fill-rule="evenodd" clip-rule="evenodd" d="M18.6475 2.37747C18.7248 2.82143 18.7436 3.34902 18.7488 3.95264C18.8356 3.99789 18.9207 4.04606 19.0043 4.09732C19.778 4.57144 20.4285 5.22194 20.9027 5.99564C21.4247 6.84749 21.6145 7.83477 21.6929 9.0896C21.75 10.0025 21.75 11.1128 21.75 12.4765V12.5048C21.75 13.2868 21.75 13.9834 21.7397 14.6034C21.7077 16.5313 21.5828 17.8944 20.9027 19.0044C20.4285 19.7781 19.778 20.4286 19.0043 20.9027C18.2655 21.3554 17.4274 21.5572 16.4039 21.6545C15.3997 21.75 14.1428 21.75 12.5394 21.75H9.4606C7.85725 21.75 6.60025 21.75 5.59608 21.6545C4.57253 21.5572 3.73443 21.3554 2.99561 20.9027C2.22191 20.4286 1.57141 19.7781 1.09729 19.0044C0.644542 18.2656 0.44276 17.4274 0.345441 16.4039C0.249962 15.3997 0.249967 14.1427 0.249973 12.5394L0.250053 12.0136C0.236876 11.5195 0.240922 10.967 0.245286 10.3713C0.247586 10.0574 0.249973 9.73141 0.249973 9.39563L0.249973 9.35227C0.249965 7.64004 0.249959 6.29622 0.360796 5.22968C0.473843 4.14188 0.708923 3.25462 1.2391 2.49386C1.55942 2.03422 1.94803 1.62873 2.39135 1.29294C3.12966 0.733705 3.99364 0.4851 5.04725 0.366092C6.07518 0.249986 7.36834 0.249994 9.00644 0.250004L14.4745 0.250001C15.2731 0.249967 15.9499 0.249937 16.4895 0.325571C17.0659 0.406355 17.5948 0.586067 18.018 1.02728C18.3854 1.41026 18.5594 1.87228 18.6475 2.37747ZM14.4218 1.75C15.2875 1.75 15.8581 1.75173 16.2813 1.81105C16.6796 1.86688 16.8346 1.96039 16.9355 2.06563C17.0288 2.16295 17.1131 2.30988 17.1697 2.63506C17.2076 2.85249 17.2283 3.11824 17.2393 3.45819C16.8265 3.38265 16.3811 3.33609 15.8959 3.30615C14.9858 3.25 13.8799 3.25 12.5231 3.25H9.46061C7.85723 3.25 6.60027 3.24999 5.59608 3.34547C4.57253 3.44279 3.73443 3.64457 2.99561 4.09732C2.59732 4.34139 2.23169 4.6322 1.90596 4.96249C2.01572 4.23516 2.19546 3.74505 2.46974 3.35149C2.70132 3.01919 2.98073 2.72824 3.29704 2.48865C3.73477 2.15709 4.29761 1.9603 5.21561 1.85661C6.14957 1.75112 7.35804 1.75 9.05305 1.75H14.4218ZM3.77935 5.37628C4.24288 5.09224 4.82431 4.92562 5.73806 4.83874C6.66297 4.7508 7.84874 4.75 9.49997 4.75H12.5C13.8846 4.75 14.9449 4.75033 15.8035 4.80331C16.6613 4.85624 17.261 4.95942 17.7337 5.13895C17.9107 5.2062 18.071 5.28461 18.2206 5.37628C18.7925 5.72672 19.2733 6.20752 19.6237 6.77939C19.8703 7.18183 20.0274 7.671 20.1216 8.38638H14.6363C12.7159 8.38638 11.1591 9.94321 11.1591 11.8637C11.1591 13.7841 12.7159 15.3409 14.6363 15.3409H20.2193C20.1615 16.8013 20.0022 17.603 19.6237 18.2206C19.2733 18.7925 18.7925 19.2733 18.2206 19.6237C17.7571 19.9078 17.1756 20.0744 16.2619 20.1613C15.337 20.2492 14.1512 20.25 12.5 20.25H9.49997C7.84874 20.25 6.66297 20.2492 5.73806 20.1613C4.82431 20.0744 4.24288 19.9078 3.77935 19.6237C3.20749 19.2733 2.72669 18.7925 2.37625 18.2206C2.0922 17.7571 1.92559 17.1757 1.83871 16.2619C1.75076 15.337 1.74997 14.1512 1.74997 12.5C1.74997 10.8488 1.75076 9.66301 1.83871 8.73809C1.92559 7.82434 2.0922 7.24291 2.37625 6.77939C2.72669 6.20752 3.20749 5.72672 3.77935 5.37628ZM12.6591 11.8637C12.6591 10.7716 13.5443 9.88638 14.6363 9.88638H20.2275C20.2498 10.6103 20.25 11.4644 20.25 12.5C20.25 12.9839 20.25 13.429 20.2476 13.8409H14.6363C13.5443 13.8409 12.6591 12.9557 12.6591 11.8637Z" fill="white"/>
</svg>
