<svg width="14" height="14" viewBox="0 0 14 14" fill="none" xmlns="http://www.w3.org/2000/svg">
<path d="M2.91667 1.27273H11.0833C11.4326 1.27348 11.7737 1.38824 12.0627 1.60224C12.3517 1.81624 12.5754 2.11969 12.705 2.47355L8.23783 7.34745C7.90908 7.70465 7.46399 7.90521 7 7.90521C6.53601 7.90521 6.09092 7.70465 5.76217 7.34745L1.295 2.47355C1.42459 2.11969 1.64827 1.81624 1.93728 1.60224C2.22628 1.38824 2.56738 1.27348 2.91667 1.27273Z" fill="url(#paint0_linear_100_4402)"/>
<path d="M11.0833 12.7273H2.91667C2.45254 12.7273 2.00742 12.5261 1.67923 12.1681C1.35104 11.8101 1.16667 11.3245 1.16667 10.8182V4.13636L4.93733 8.24727C5.48487 8.84307 6.22665 9.17766 7 9.17766C7.77335 9.17766 8.51513 8.84307 9.06267 8.24727L12.8333 4.13636V10.8182C12.8333 11.3245 12.649 11.8101 12.3208 12.1681C11.9926 12.5261 11.5475 12.7273 11.0833 12.7273Z" fill="url(#paint1_linear_100_4402)"/>
<path fill-rule="evenodd" clip-rule="evenodd" d="M2.91667 0H11.0833C11.8566 0.00101045 12.5979 0.336561 13.1447 0.933049C13.3291 1.13424 13.4863 1.35957 13.6138 1.60224L12.705 2.47355C12.5754 2.11969 12.3517 1.81624 12.0627 1.60224C11.7737 1.38824 11.4326 1.27348 11.0833 1.27273H2.91667C2.56738 1.27348 2.22628 1.38824 1.93728 1.60224C1.64827 1.81624 1.42459 2.11969 1.295 2.47355L0.386251 1.60224C0.513662 1.35957 0.670873 1.13424 0.855295 0.933049C1.40208 0.336561 2.1434 0.00101045 2.91667 0ZM0.00759656 2.95588C0.00263145 3.03083 8.30496e-05 3.10618 0 3.18182V10.8182C0.00092625 11.6617 0.308514 12.4705 0.855295 13.067C1.40208 13.6634 2.1434 13.999 2.91667 14H11.0833C11.8566 13.999 12.5979 13.6634 13.1447 13.067C13.6915 12.4705 13.9991 11.6617 14 10.8182V3.18182C13.9999 3.07508 13.9949 2.9689 13.9851 2.86364L12.8333 4.13636V10.8182C12.8333 11.3245 12.649 11.8101 12.3208 12.1681C11.9926 12.5261 11.5475 12.7273 11.0833 12.7273H2.91667C2.45254 12.7273 2.00742 12.5261 1.67923 12.1681C1.35104 11.8101 1.16667 11.3245 1.16667 10.8182V4.13636L0.00759656 2.95588Z" fill="url(#paint2_linear_100_4402)"/>
<defs>
<linearGradient id="paint0_linear_100_4402" x1="23.9095" y1="6.39291" x2="-18.657" y2="13.3054" gradientUnits="userSpaceOnUse">
<stop offset="0.0550459" stop-color="#FF4AF7"/>
<stop offset="1" stop-color="#00CCFF"/>
</linearGradient>
<linearGradient id="paint1_linear_100_4402" x1="23.9095" y1="6.39291" x2="-18.657" y2="13.3054" gradientUnits="userSpaceOnUse">
<stop offset="0.0550459" stop-color="#FF4AF7"/>
<stop offset="1" stop-color="#00CCFF"/>
</linearGradient>
<linearGradient id="paint2_linear_100_4402" x1="23.9095" y1="6.39291" x2="-18.657" y2="13.3054" gradientUnits="userSpaceOnUse">
<stop offset="0.0550459" stop-color="#FF4AF7"/>
<stop offset="1" stop-color="#00CCFF"/>
</linearGradient>
</defs>
</svg>
