<svg width="21" height="20" viewBox="0 0 21 20" fill="none" xmlns="http://www.w3.org/2000/svg">
<path d="M11.25 1C11.25 0.585786 10.9142 0.25 10.5 0.25C10.0858 0.25 9.75001 0.585786 9.75001 1V13.8105C9.42735 13.483 9.04376 13.001 8.48554 12.297L7.08769 10.534C6.83034 10.2095 6.35861 10.155 6.03404 10.4123C5.70947 10.6697 5.65498 11.1414 5.91232 11.466L7.33857 13.2648C7.87175 13.9372 8.31172 14.4922 8.70552 14.8875C9.10963 15.2932 9.55817 15.6294 10.1313 15.7208C10.2534 15.7402 10.3766 15.75 10.5 15.75C10.6234 15.75 10.7466 15.7402 10.8687 15.7208C11.4419 15.6294 11.8904 15.2932 12.2945 14.8875C12.6883 14.4922 13.1283 13.9372 13.6614 13.2648L15.0877 11.466C15.345 11.1414 15.2905 10.6697 14.966 10.4123C14.6414 10.155 14.1697 10.2095 13.9123 10.534L12.5145 12.297C11.9563 13.001 11.5727 13.483 11.25 13.8105V1Z" fill="#FAFAFA"/>
<path d="M19.1 8.54957C18.8513 8.21837 18.3811 8.15156 18.0499 8.40032C17.7188 8.64909 17.6519 9.11924 17.9007 9.45043C18.4342 10.1607 18.75 11.0424 18.75 12V13C18.75 13.9577 18.7477 14.3492 18.6977 14.6648C18.4097 16.4834 16.9834 17.9096 15.1649 18.1977C14.8492 18.2477 14.4577 18.25 13.5 18.25H7.50001C6.54234 18.25 6.15083 18.2477 5.83516 18.1977C4.01662 17.9096 2.59036 16.4834 2.30233 14.6648C2.25234 14.3492 2.25001 13.9577 2.25001 13V12C2.25001 11.0424 2.56583 10.1607 3.09932 9.45043C3.34808 9.11924 3.28127 8.64909 2.95008 8.40032C2.61888 8.15156 2.14874 8.21838 1.89997 8.54957C1.17807 9.51065 0.750008 10.7064 0.750008 12L0.750004 13.0808C0.749937 13.9328 0.749895 14.4518 0.8208 14.8995C1.21049 17.3599 3.14013 19.2895 5.60051 19.6792C6.04819 19.7501 6.56718 19.7501 7.41921 19.75H13.5808C14.4328 19.7501 14.9518 19.7501 15.3995 19.6792C17.8599 19.2895 19.7895 17.3599 20.1792 14.8995C20.2501 14.4518 20.2501 13.9328 20.25 13.0808L20.25 12C20.25 10.7064 19.8219 9.51065 19.1 8.54957Z" fill="#FAFAFA"/>
</svg>
