<svg width="377" height="156" viewBox="0 0 377 156" fill="none" xmlns="http://www.w3.org/2000/svg">
<rect x="8" width="361" height="132" rx="10" fill="url(#paint0_linear_1503_1183)" fill-opacity="0.15"/>
<g clip-path="url(#clip0_1503_1183)">
<path d="M52.4863 124.882L52.9444 117.33C53.0175 116.381 52.8634 115.429 52.4949 114.552C52.1264 113.674 51.5542 112.898 50.8256 112.286L39.473 102.767C38.748 102.158 37.8887 101.73 36.9659 101.517C36.0431 101.305 35.0831 101.316 34.1649 101.547L26.7185 103.296C25.4709 103.623 24.3627 104.345 23.5597 105.354C22.7568 106.364 22.3023 107.606 22.2643 108.895L20.4948 131.462C20.475 132.138 20.6089 132.809 20.8864 133.426C21.1639 134.042 21.5777 134.587 22.0967 135.02V135.02C22.6243 135.461 23.2461 135.774 23.914 135.937C24.582 136.1 25.2783 136.107 25.9495 135.958L47.6509 130.37C48.9506 130.119 50.1304 129.445 51.0054 128.452C51.8805 127.459 52.4013 126.203 52.4863 124.882ZM49.9624 117.124L49.5027 124.694C49.4999 124.735 49.4796 124.769 49.4758 124.81L43.8717 120.112L47.0384 113.012L48.9045 114.577C49.2713 114.886 49.5586 115.279 49.7427 115.722C49.9267 116.165 50.002 116.646 49.9624 117.124V117.124ZM26.786 129.427L33.4115 115.243L39.5976 120.43L26.786 129.427ZM35.3623 112.977L41.8008 108.621L44.6556 111.014L41.4889 118.114L35.3623 112.977ZM34.883 104.453C35.3439 104.335 35.8263 104.328 36.2904 104.433C36.7545 104.539 37.1869 104.753 37.5519 105.058L39.418 106.623L32.9795 110.979L27.3342 106.245C27.3713 106.234 27.4019 106.207 27.4404 106.198L34.883 104.453ZM25.2499 109.034C25.2651 108.848 25.2987 108.663 25.3501 108.484L31.0425 113.257L23.6856 128.997L25.2499 109.034ZM27.7371 132.414L41.9701 122.419L47.6819 127.208C47.4647 127.317 47.2356 127.401 46.9991 127.457L27.7371 132.414Z" fill="url(#paint1_linear_1503_1183)"/>
</g>
<g clip-path="url(#clip1_1503_1183)">
<path d="M16.4801 81.7834L13.2671 80.4174C12.8659 80.2391 12.428 80.159 11.9896 80.1836C11.5512 80.2083 11.1251 80.3371 10.7464 80.5594L4.85372 84.0248C4.4769 84.246 4.15797 84.5534 3.92319 84.9219C3.68841 85.2904 3.54449 85.7093 3.50326 86.1443L3.11345 89.6523C3.06279 90.2452 3.20552 90.8386 3.52028 91.3437C3.83504 91.8487 4.3049 92.2383 4.85953 92.454L14.3985 96.71C14.6892 96.8229 15.0017 96.8684 15.3125 96.843C15.6234 96.8175 15.9244 96.7218 16.1928 96.5631V96.5631C16.4659 96.4017 16.6983 96.1799 16.8723 95.9146C17.0462 95.6493 17.1569 95.3476 17.1959 95.0328L18.1191 84.7337C18.2109 84.1299 18.0998 83.5127 17.8032 82.9788C17.5066 82.4449 17.0412 82.0245 16.4801 81.7834ZM12.7168 81.6822L15.9375 83.0517C15.9547 83.0592 15.9661 83.0732 15.9837 83.0813L13.0748 84.792L10.4772 82.3183L11.4458 81.7486C11.637 81.637 11.8522 81.5727 12.0733 81.5611C12.2944 81.5496 12.515 81.5911 12.7168 81.6822V81.6822ZM14.4856 93.6601L9.34186 88.5879L12.5528 86.6995L14.4856 93.6601ZM8.65793 87.3896L7.75857 83.9171L9.24037 83.0456L11.838 85.5194L8.65793 87.3896ZM4.87776 86.2811C4.89766 86.0624 4.96928 85.8516 5.0867 85.6661C5.20413 85.4806 5.364 85.3257 5.55311 85.2141L6.52175 84.6444L7.42111 88.1169L4.49081 89.8402C4.49144 89.8222 4.48438 89.8048 4.48655 89.7867L4.87776 86.2811ZM5.38115 91.1773C5.30255 91.1419 5.22764 91.0988 5.15749 91.0487L8.11218 89.3111L13.8196 94.9417L5.38115 91.1773ZM15.931 93.708L13.7843 85.9753L16.7491 84.2317C16.763 84.343 16.7639 84.4555 16.7518 84.567L15.931 93.708Z" fill="url(#paint2_linear_1503_1183)"/>
</g>
<g clip-path="url(#clip2_1503_1183)">
<path d="M325.178 124.882L324.72 117.33C324.647 116.381 324.801 115.429 325.169 114.552C325.538 113.674 326.11 112.898 326.838 112.286L338.191 102.767C338.916 102.158 339.775 101.73 340.698 101.517C341.621 101.305 342.581 101.316 343.499 101.547L350.946 103.296C352.193 103.623 353.301 104.345 354.104 105.354C354.907 106.364 355.362 107.606 355.4 108.895L357.169 131.462C357.189 132.138 357.055 132.809 356.778 133.426C356.5 134.042 356.086 134.587 355.567 135.02V135.02C355.04 135.461 354.418 135.774 353.75 135.937C353.082 136.1 352.386 136.107 351.715 135.958L330.013 130.37C328.713 130.119 327.534 129.445 326.659 128.452C325.784 127.459 325.263 126.203 325.178 124.882ZM327.702 117.124L328.161 124.694C328.164 124.735 328.185 124.769 328.188 124.81L333.792 120.112L330.626 113.012L328.76 114.577C328.393 114.886 328.105 115.279 327.921 115.722C327.737 116.165 327.662 116.646 327.702 117.124V117.124ZM350.878 129.427L344.253 115.243L338.066 120.43L350.878 129.427ZM342.302 112.977L335.863 108.621L333.008 111.014L336.175 118.114L342.302 112.977ZM342.781 104.453C342.32 104.335 341.838 104.328 341.374 104.433C340.91 104.539 340.477 104.753 340.112 105.058L338.246 106.623L344.685 110.979L350.33 106.245C350.293 106.234 350.262 106.207 350.224 106.198L342.781 104.453ZM352.414 109.034C352.399 108.848 352.365 108.663 352.314 108.484L346.622 113.257L353.978 128.997L352.414 109.034ZM349.927 132.414L335.694 122.419L329.982 127.208C330.199 127.317 330.428 127.401 330.665 127.457L349.927 132.414Z" fill="url(#paint3_linear_1503_1183)"/>
</g>
<g clip-path="url(#clip3_1503_1183)">
<path d="M361.185 81.7834L364.398 80.4174C364.799 80.2391 365.237 80.159 365.675 80.1836C366.114 80.2083 366.54 80.3371 366.919 80.5594L372.811 84.0248C373.188 84.246 373.507 84.5534 373.742 84.9219C373.977 85.2904 374.121 85.7093 374.162 86.1443L374.552 89.6523C374.602 90.2452 374.46 90.8386 374.145 91.3437C373.83 91.8487 373.36 92.2383 372.806 92.454L363.267 96.71C362.976 96.8229 362.663 96.8684 362.352 96.843C362.042 96.8175 361.741 96.7218 361.472 96.5631V96.5631C361.199 96.4017 360.967 96.1799 360.793 95.9146C360.619 95.6493 360.508 95.3476 360.469 95.0328L359.546 84.7337C359.454 84.1299 359.565 83.5127 359.862 82.9788C360.158 82.4449 360.624 82.0245 361.185 81.7834ZM364.948 81.6822L361.728 83.0517C361.71 83.0592 361.699 83.0732 361.681 83.0813L364.59 84.792L367.188 82.3183L366.219 81.7486C366.028 81.637 365.813 81.5727 365.592 81.5611C365.371 81.5496 365.15 81.5911 364.948 81.6822V81.6822ZM363.179 93.6601L368.323 88.5879L365.112 86.6995L363.179 93.6601ZM369.007 87.3896L369.906 83.9171L368.425 83.0456L365.827 85.5194L369.007 87.3896ZM372.787 86.2811C372.767 86.0624 372.696 85.8516 372.578 85.6661C372.461 85.4806 372.301 85.3257 372.112 85.2141L371.143 84.6444L370.244 88.1169L373.174 89.8402C373.174 89.8222 373.181 89.8048 373.178 89.7867L372.787 86.2811ZM372.284 91.1773C372.362 91.1419 372.437 91.0988 372.508 91.0487L369.553 89.3111L363.845 94.9417L372.284 91.1773ZM361.734 93.708L363.881 85.9753L360.916 84.2317C360.902 84.343 360.901 84.4555 360.913 84.567L361.734 93.708Z" fill="url(#paint4_linear_1503_1183)"/>
</g>
<path d="M57 15H30C25.5817 15 22 18.5817 22 23V94M318 15H347C351.418 15 355 18.5817 355 23V94M62.5 120.466H312" stroke="url(#paint5_linear_1503_1183)" stroke-dasharray="3 3"/>
<defs>
<linearGradient id="paint0_linear_1503_1183" x1="624.524" y1="60.276" x2="-316.436" y2="478.172" gradientUnits="userSpaceOnUse">
<stop offset="0.0550459" stop-color="#FF4AF7"/>
<stop offset="1" stop-color="#00CCFF"/>
</linearGradient>
<linearGradient id="paint1_linear_1503_1183" x1="67.8234" y1="147.919" x2="-27.1401" y2="91.4078" gradientUnits="userSpaceOnUse">
<stop offset="0.0550459" stop-color="#FF4AF7"/>
<stop offset="1" stop-color="#00CCFF"/>
</linearGradient>
<linearGradient id="paint2_linear_1503_1183" x1="28.8657" y1="78.6739" x2="-10.3767" y2="111.233" gradientUnits="userSpaceOnUse">
<stop offset="0.0550459" stop-color="#FF4AF7"/>
<stop offset="1" stop-color="#00CCFF"/>
</linearGradient>
<linearGradient id="paint3_linear_1503_1183" x1="309.841" y1="147.919" x2="404.804" y2="91.4078" gradientUnits="userSpaceOnUse">
<stop offset="0.0550459" stop-color="#FF4AF7"/>
<stop offset="1" stop-color="#00CCFF"/>
</linearGradient>
<linearGradient id="paint4_linear_1503_1183" x1="348.799" y1="78.6739" x2="388.042" y2="111.233" gradientUnits="userSpaceOnUse">
<stop offset="0.0550459" stop-color="#FF4AF7"/>
<stop offset="1" stop-color="#00CCFF"/>
</linearGradient>
<linearGradient id="paint5_linear_1503_1183" x1="590.705" y1="63.1597" x2="-232.145" y2="485.065" gradientUnits="userSpaceOnUse">
<stop offset="0.0550459" stop-color="#FF4AF7"/>
<stop offset="1" stop-color="#00CCFF"/>
</linearGradient>
<clipPath id="clip0_1503_1183">
<rect width="35.8793" height="35.8793" fill="white" transform="translate(31.4023 96) rotate(39.9787)"/>
</clipPath>
<clipPath id="clip1_1503_1183">
<rect width="16.5559" height="16.5559" fill="white" transform="translate(0.665039 86.4883) rotate(-30.4596)"/>
</clipPath>
<clipPath id="clip2_1503_1183">
<rect width="35.8793" height="35.8793" fill="white" transform="matrix(-0.766283 0.642503 0.642503 0.766283 346.262 96)"/>
</clipPath>
<clipPath id="clip3_1503_1183">
<rect width="16.5559" height="16.5559" fill="white" transform="matrix(-0.861987 -0.506931 -0.506931 0.861987 377 86.4883)"/>
</clipPath>
</defs>
</svg>
