<svg width="25" height="13" viewBox="0 0 25 13" fill="none" xmlns="http://www.w3.org/2000/svg">
<path d="M12.2321 12.169C11.5755 12.1702 10.9251 12.0417 10.3182 11.7908C9.71142 11.5399 9.16015 11.1716 8.6961 10.707L0.525097 2.53502C0.342939 2.34642 0.242144 2.09382 0.244423 1.83162C0.246701 1.56942 0.35187 1.31861 0.537278 1.1332C0.722686 0.947796 0.973499 0.842627 1.2357 0.840349C1.49789 0.83807 1.75049 0.938865 1.9391 1.12102L10.1101 9.29302C10.6734 9.85483 11.4365 10.1703 12.2321 10.1703C13.0277 10.1703 13.7908 9.85483 14.3541 9.29302L22.5251 1.12102C22.6173 1.02551 22.7277 0.949331 22.8497 0.896922C22.9717 0.844513 23.1029 0.816926 23.2357 0.815773C23.3685 0.814619 23.5002 0.83992 23.623 0.890201C23.7459 0.940482 23.8576 1.01474 23.9515 1.10863C24.0454 1.20252 24.1196 1.31417 24.1699 1.43707C24.2202 1.55997 24.2455 1.69165 24.2443 1.82442C24.2432 1.9572 24.2156 2.08842 24.1632 2.21043C24.1108 2.33243 24.0346 2.44278 23.9391 2.53502L15.7681 10.707C15.304 11.1716 14.7528 11.5399 14.146 11.7908C13.5391 12.0417 12.8887 12.1702 12.2321 12.169Z" fill="url(#paint0_linear_1001_1729)"/>
<defs>
<linearGradient id="paint0_linear_1001_1729" x1="41.2321" y1="6.00006" x2="-25.7679" y2="29.0001" gradientUnits="userSpaceOnUse">
<stop offset="0.0550459" stop-color="#FF4AF7"/>
<stop offset="1" stop-color="#00CCFF"/>
</linearGradient>
</defs>
</svg>
