<svg width="18" height="18" viewBox="0 0 18 18" fill="none" xmlns="http://www.w3.org/2000/svg">
<path d="M15.2093 0H3.19082C1.83389 0 0.800049 1.10769 0.800049 2.56154V15.4385C0.800049 16.8923 1.83389 18 3.19082 18H15.2093C16.5662 18 17.6 16.8923 17.6 15.4385V2.56154C17.6 1.10769 16.5662 0 15.2093 0ZM9.20005 14.4C11.9785 14.4 14.2401 12.0462 14.2401 9.20769C14.2401 8.72308 14.1754 8.16923 14.0462 7.75385H15.4677V15.0923C15.4677 15.4385 15.2093 15.7846 14.8216 15.7846H3.57851C3.25544 15.7846 2.93236 15.5077 2.93236 15.0923V7.68461H4.41851C4.28928 8.16923 4.22467 8.65385 4.22467 9.13846C4.16005 12.0462 6.42159 14.4 9.20005 14.4ZM9.20005 12.3231C7.39082 12.3231 5.96928 10.8 5.96928 8.93077C5.96928 7.06154 7.39082 5.53846 9.20005 5.53846C11.0093 5.53846 12.4308 7.06154 12.4308 8.93077C12.4308 10.8692 11.0093 12.3231 9.20005 12.3231ZM15.4031 4.91538C15.4031 5.33077 15.08 5.67692 14.6924 5.67692H12.8831C12.4954 5.67692 12.1724 5.33077 12.1724 4.91538V3.04615C12.1724 2.63077 12.4954 2.28461 12.8831 2.28461H14.6924C15.08 2.28461 15.4031 2.63077 15.4031 3.04615V4.91538Z" fill="url(#paint0_linear_13_168)"/>
<path d="M15.2093 0H3.19082C1.83389 0 0.800049 1.10769 0.800049 2.56154V15.4385C0.800049 16.8923 1.83389 18 3.19082 18H15.2093C16.5662 18 17.6 16.8923 17.6 15.4385V2.56154C17.6 1.10769 16.5662 0 15.2093 0ZM9.20005 14.4C11.9785 14.4 14.2401 12.0462 14.2401 9.20769C14.2401 8.72308 14.1754 8.16923 14.0462 7.75385H15.4677V15.0923C15.4677 15.4385 15.2093 15.7846 14.8216 15.7846H3.57851C3.25544 15.7846 2.93236 15.5077 2.93236 15.0923V7.68461H4.41851C4.28928 8.16923 4.22467 8.65385 4.22467 9.13846C4.16005 12.0462 6.42159 14.4 9.20005 14.4ZM9.20005 12.3231C7.39082 12.3231 5.96928 10.8 5.96928 8.93077C5.96928 7.06154 7.39082 5.53846 9.20005 5.53846C11.0093 5.53846 12.4308 7.06154 12.4308 8.93077C12.4308 10.8692 11.0093 12.3231 9.20005 12.3231ZM15.4031 4.91538C15.4031 5.33077 15.08 5.67692 14.6924 5.67692H12.8831C12.4954 5.67692 12.1724 5.33077 12.1724 4.91538V3.04615C12.1724 2.63077 12.4954 2.28461 12.8831 2.28461H14.6924C15.08 2.28461 15.4031 2.63077 15.4031 3.04615V4.91538Z" fill="#9A9AAF" fill-opacity="0.5"/>
<defs>
<linearGradient id="paint0_linear_13_168" x1="2.00789" y1="-11.7" x2="23.2288" y2="-8.45459" gradientUnits="userSpaceOnUse">
<stop stop-color="#3C2665"/>
<stop offset="1" stop-color="#4F3CA7"/>
</linearGradient>
</defs>
</svg>
