<svg width="19" height="18" viewBox="0 0 19 18" fill="none" xmlns="http://www.w3.org/2000/svg">
<path d="M18.8 2.98445C18.8 1.39896 17.4011 0 15.8156 0H3.7845C2.19901 0 0.800049 1.39896 0.800049 2.98445V15.0155C0.800049 16.601 2.19901 18 3.7845 18H9.84668V11.1917H7.60834V8.20726H9.84668V6.99482C9.84668 4.943 11.3389 3.17098 13.2042 3.17098H15.6291V6.15543H13.2042C12.9244 6.15543 12.6446 6.43523 12.6446 6.99482V8.20726H15.6291V11.1917H12.6446V18H15.8156C17.4011 18 18.8 16.601 18.8 15.0155V2.98445Z" fill="url(#paint0_linear_13_166)"/>
<path d="M18.8 2.98445C18.8 1.39896 17.4011 0 15.8156 0H3.7845C2.19901 0 0.800049 1.39896 0.800049 2.98445V15.0155C0.800049 16.601 2.19901 18 3.7845 18H9.84668V11.1917H7.60834V8.20726H9.84668V6.99482C9.84668 4.943 11.3389 3.17098 13.2042 3.17098H15.6291V6.15543H13.2042C12.9244 6.15543 12.6446 6.43523 12.6446 6.99482V8.20726H15.6291V11.1917H12.6446V18H15.8156C17.4011 18 18.8 16.601 18.8 15.0155V2.98445Z" fill="#9A9AAF" fill-opacity="0.5"/>
<defs>
<linearGradient id="paint0_linear_13_166" x1="2.09417" y1="-11.7" x2="24.7542" y2="-7.98696" gradientUnits="userSpaceOnUse">
<stop stop-color="#3C2665"/>
<stop offset="1" stop-color="#4F3CA7"/>
</linearGradient>
</defs>
</svg>
