<svg width="23" height="18" viewBox="0 0 23 18" fill="none" xmlns="http://www.w3.org/2000/svg">
<path d="M22.8001 2.1923C22.0089 2.53845 21.1047 2.76923 20.2004 2.88461C21.1047 2.30769 21.8958 1.38462 22.2349 0.346157C21.3307 0.92308 20.4265 1.26923 19.2962 1.5C18.505 0.576926 17.2616 0 16.0183 0C13.5316 0 11.4971 2.07692 11.4971 4.61538C11.4971 4.96154 11.4971 5.30768 11.6101 5.65384C7.88015 5.42307 4.48925 3.57692 2.22865 0.807689C1.88956 1.5 1.6635 2.30769 1.6635 3.11538C1.6635 4.73076 2.45471 6.11538 3.69804 6.92307C2.90683 6.92307 2.22865 6.69231 1.6635 6.34615C1.6635 8.53846 3.24592 10.5 5.28046 10.8461C4.94137 10.9615 4.48926 10.9615 4.03714 10.9615C3.69805 10.9615 3.47198 10.9615 3.13289 10.8461C3.69804 12.6923 5.3935 14.0769 7.42803 14.0769C5.84561 15.3461 3.92411 16.0384 1.77654 16.0384C1.43745 16.0384 1.09836 16.0385 0.64624 15.9231C2.68078 17.1923 5.0544 18 7.65409 18C16.0183 18 20.5395 10.9615 20.5395 4.84615V4.26923C21.4437 3.92307 22.2349 3.11538 22.8001 2.1923Z" fill="url(#paint0_linear_13_164)"/>
<path d="M22.8001 2.1923C22.0089 2.53845 21.1047 2.76923 20.2004 2.88461C21.1047 2.30769 21.8958 1.38462 22.2349 0.346157C21.3307 0.92308 20.4265 1.26923 19.2962 1.5C18.505 0.576926 17.2616 0 16.0183 0C13.5316 0 11.4971 2.07692 11.4971 4.61538C11.4971 4.96154 11.4971 5.30768 11.6101 5.65384C7.88015 5.42307 4.48925 3.57692 2.22865 0.807689C1.88956 1.5 1.6635 2.30769 1.6635 3.11538C1.6635 4.73076 2.45471 6.11538 3.69804 6.92307C2.90683 6.92307 2.22865 6.69231 1.6635 6.34615C1.6635 8.53846 3.24592 10.5 5.28046 10.8461C4.94137 10.9615 4.48926 10.9615 4.03714 10.9615C3.69805 10.9615 3.47198 10.9615 3.13289 10.8461C3.69804 12.6923 5.3935 14.0769 7.42803 14.0769C5.84561 15.3461 3.92411 16.0384 1.77654 16.0384C1.43745 16.0384 1.09836 16.0385 0.64624 15.9231C2.68078 17.1923 5.0544 18 7.65409 18C16.0183 18 20.5395 10.9615 20.5395 4.84615V4.26923C21.4437 3.92307 22.2349 3.11538 22.8001 2.1923Z" fill="#9A9AAF" fill-opacity="0.5"/>
<defs>
<linearGradient id="paint0_linear_13_164" x1="2.239" y1="-11.7" x2="29.7578" y2="-6.15021" gradientUnits="userSpaceOnUse">
<stop stop-color="#3C2665"/>
<stop offset="1" stop-color="#4F3CA7"/>
</linearGradient>
</defs>
</svg>
