<svg width="27" height="16" viewBox="0 0 27 16" fill="none" xmlns="http://www.w3.org/2000/svg">
<path d="M26.403 14.3562C26.403 14.2466 26.2988 14.2466 26.2988 14.137C25.8821 13.2603 24.9446 12.1644 23.6945 10.9589C23.0695 10.411 22.757 9.9726 22.5486 9.75342C22.2361 9.31507 22.2361 8.98631 22.3403 8.54795C22.4445 8.21919 22.8611 7.67123 23.5903 6.68493C24.007 6.13698 24.2154 5.80822 24.5279 5.47945C26.0904 3.28767 26.8196 1.863 26.6113 1.20547L26.5072 1.09589C26.403 0.986302 26.2988 0.876716 26.0904 0.876716C25.8821 0.767127 25.5696 0.767127 25.2571 0.876716H21.2986C21.1944 0.876716 21.1944 0.876716 20.9861 0.876716C20.8819 0.876716 20.7777 0.876716 20.7777 0.876716H20.6736H20.5694L20.4652 0.986295C20.361 1.09588 20.361 1.09588 20.361 1.20547C19.9444 2.41095 19.4235 3.39725 18.9026 4.49314C18.5901 5.04109 18.2776 5.58904 17.9651 6.0274C17.6526 6.46576 17.4442 6.79452 17.2359 7.0137C17.0276 7.23287 16.8192 7.34246 16.715 7.56164C16.6109 7.67123 16.4025 7.78083 16.4025 7.67124C16.2984 7.67124 16.1942 7.67123 16.1942 7.56164C16.09 7.45205 15.9859 7.34246 15.8817 7.23287C15.7775 7.12328 15.7775 6.9041 15.6733 6.68493C15.6733 6.46575 15.6733 6.24657 15.6733 6.13698C15.6733 6.02739 15.6733 5.69863 15.6733 5.47945C15.6733 5.15069 15.6733 4.9315 15.6733 4.82191C15.6733 4.49315 15.6733 4.0548 15.6733 3.61644C15.6733 3.17809 15.6733 2.84931 15.6733 2.63013C15.6733 2.41095 15.6733 2.08219 15.6733 1.86301C15.6733 1.53424 15.6733 1.31506 15.6733 1.20547C15.6733 1.09588 15.5692 0.87671 15.5692 0.76712C15.465 0.657531 15.3608 0.547939 15.2567 0.43835C15.1525 0.328761 14.9441 0.328764 14.84 0.219175C14.3191 0.109586 13.6941 0 12.9649 0C11.2982 0 10.1523 0.109592 9.7356 0.328771C9.52726 0.43836 9.31891 0.547942 9.21474 0.76712C9.0064 0.986299 9.00639 1.09589 9.11056 1.09589C9.63142 1.20548 10.0481 1.42465 10.2565 1.75342L10.3606 1.97261C10.4648 2.0822 10.4648 2.30136 10.569 2.63013C10.6731 2.9589 10.6731 3.28767 10.6731 3.72602C10.6731 4.38356 10.6731 5.0411 10.6731 5.47945C10.6731 6.0274 10.569 6.35616 10.569 6.68493C10.569 7.01369 10.4648 7.23288 10.3606 7.34247C10.2565 7.56165 10.2564 7.67124 10.1523 7.67124C10.1523 7.67124 10.1523 7.78082 10.0481 7.78082C9.94393 7.78082 9.83976 7.89041 9.63142 7.89041C9.52725 7.89041 9.31891 7.78083 9.21474 7.67124C9.0064 7.56165 8.79806 7.34247 8.69389 7.12329C8.48554 6.90411 8.27719 6.57534 8.06885 6.13698C7.86051 5.69862 7.54798 5.26027 7.33964 4.60274L7.13132 4.16439C7.02715 3.94521 6.81881 3.50685 6.61046 2.9589C6.40212 2.41096 6.19377 1.97261 5.98543 1.42466C5.88126 1.20548 5.7771 1.09588 5.67293 0.986295H5.56875C5.56875 0.986295 5.46457 0.876716 5.3604 0.876716C5.25623 0.876716 5.15207 0.76712 5.0479 0.76712H1.29773C0.881043 0.76712 0.672704 0.876706 0.568533 0.986295L0.464355 1.09589C0.464355 1.09589 0.464355 1.20548 0.464355 1.31507C0.464355 1.42466 0.464362 1.53424 0.568533 1.75342C1.08939 3.06849 1.71441 4.38356 2.33944 5.69863C2.96447 6.90411 3.5895 8 4.00618 8.76713C4.52704 9.53425 4.94372 10.3014 5.46457 10.9589C5.98543 11.6164 6.29794 12.0548 6.40211 12.274C6.61045 12.4932 6.71461 12.6027 6.81879 12.7123L7.13132 13.0411C7.33966 13.2603 7.65217 13.589 8.06885 13.9178C8.48554 14.2466 9.00639 14.5753 9.52724 14.9041C10.0481 15.2329 10.6731 15.4521 11.2982 15.6712C12.0274 15.8904 12.6524 16 13.2774 15.8904H14.84C15.1525 15.8904 15.3608 15.7808 15.5692 15.5616L15.6733 15.4521C15.6733 15.3425 15.7775 15.3425 15.7775 15.2329C15.7775 15.1233 15.7775 15.0137 15.7775 14.7945C15.7775 14.3562 15.7775 14.0274 15.8817 13.6986C15.9859 13.3699 15.9859 13.1507 16.09 12.9315C16.1942 12.7123 16.2984 12.6027 16.4025 12.4932C16.5067 12.3836 16.6109 12.274 16.6109 12.274H16.715C16.9234 12.1644 17.2359 12.274 17.4443 12.4932C17.7568 12.7123 18.0693 13.0411 18.2776 13.3699C18.486 13.6986 18.7985 14.0274 19.2152 14.4658C19.6319 14.9041 19.9444 15.2329 20.1527 15.3425L20.4652 15.5616C20.6736 15.6712 20.8819 15.7808 21.1944 15.8904C21.5069 16 21.7153 16 21.9236 16L25.4654 15.8904C25.778 15.8904 26.0905 15.7808 26.2988 15.6712C26.5071 15.5617 26.6113 15.4521 26.6113 15.2329C26.6113 15.1233 26.6113 14.9041 26.6113 14.7945C26.403 14.5754 26.403 14.4658 26.403 14.3562Z" fill="url(#paint0_linear_13_162)"/>
<path d="M26.403 14.3562C26.403 14.2466 26.2988 14.2466 26.2988 14.137C25.8821 13.2603 24.9446 12.1644 23.6945 10.9589C23.0695 10.411 22.757 9.9726 22.5486 9.75342C22.2361 9.31507 22.2361 8.98631 22.3403 8.54795C22.4445 8.21919 22.8611 7.67123 23.5903 6.68493C24.007 6.13698 24.2154 5.80822 24.5279 5.47945C26.0904 3.28767 26.8196 1.863 26.6113 1.20547L26.5072 1.09589C26.403 0.986302 26.2988 0.876716 26.0904 0.876716C25.8821 0.767127 25.5696 0.767127 25.2571 0.876716H21.2986C21.1944 0.876716 21.1944 0.876716 20.9861 0.876716C20.8819 0.876716 20.7777 0.876716 20.7777 0.876716H20.6736H20.5694L20.4652 0.986295C20.361 1.09588 20.361 1.09588 20.361 1.20547C19.9444 2.41095 19.4235 3.39725 18.9026 4.49314C18.5901 5.04109 18.2776 5.58904 17.9651 6.0274C17.6526 6.46576 17.4442 6.79452 17.2359 7.0137C17.0276 7.23287 16.8192 7.34246 16.715 7.56164C16.6109 7.67123 16.4025 7.78083 16.4025 7.67124C16.2984 7.67124 16.1942 7.67123 16.1942 7.56164C16.09 7.45205 15.9859 7.34246 15.8817 7.23287C15.7775 7.12328 15.7775 6.9041 15.6733 6.68493C15.6733 6.46575 15.6733 6.24657 15.6733 6.13698C15.6733 6.02739 15.6733 5.69863 15.6733 5.47945C15.6733 5.15069 15.6733 4.9315 15.6733 4.82191C15.6733 4.49315 15.6733 4.0548 15.6733 3.61644C15.6733 3.17809 15.6733 2.84931 15.6733 2.63013C15.6733 2.41095 15.6733 2.08219 15.6733 1.86301C15.6733 1.53424 15.6733 1.31506 15.6733 1.20547C15.6733 1.09588 15.5692 0.87671 15.5692 0.76712C15.465 0.657531 15.3608 0.547939 15.2567 0.43835C15.1525 0.328761 14.9441 0.328764 14.84 0.219175C14.3191 0.109586 13.6941 0 12.9649 0C11.2982 0 10.1523 0.109592 9.7356 0.328771C9.52726 0.43836 9.31891 0.547942 9.21474 0.76712C9.0064 0.986299 9.00639 1.09589 9.11056 1.09589C9.63142 1.20548 10.0481 1.42465 10.2565 1.75342L10.3606 1.97261C10.4648 2.0822 10.4648 2.30136 10.569 2.63013C10.6731 2.9589 10.6731 3.28767 10.6731 3.72602C10.6731 4.38356 10.6731 5.0411 10.6731 5.47945C10.6731 6.0274 10.569 6.35616 10.569 6.68493C10.569 7.01369 10.4648 7.23288 10.3606 7.34247C10.2565 7.56165 10.2564 7.67124 10.1523 7.67124C10.1523 7.67124 10.1523 7.78082 10.0481 7.78082C9.94393 7.78082 9.83976 7.89041 9.63142 7.89041C9.52725 7.89041 9.31891 7.78083 9.21474 7.67124C9.0064 7.56165 8.79806 7.34247 8.69389 7.12329C8.48554 6.90411 8.27719 6.57534 8.06885 6.13698C7.86051 5.69862 7.54798 5.26027 7.33964 4.60274L7.13132 4.16439C7.02715 3.94521 6.81881 3.50685 6.61046 2.9589C6.40212 2.41096 6.19377 1.97261 5.98543 1.42466C5.88126 1.20548 5.7771 1.09588 5.67293 0.986295H5.56875C5.56875 0.986295 5.46457 0.876716 5.3604 0.876716C5.25623 0.876716 5.15207 0.76712 5.0479 0.76712H1.29773C0.881043 0.76712 0.672704 0.876706 0.568533 0.986295L0.464355 1.09589C0.464355 1.09589 0.464355 1.20548 0.464355 1.31507C0.464355 1.42466 0.464362 1.53424 0.568533 1.75342C1.08939 3.06849 1.71441 4.38356 2.33944 5.69863C2.96447 6.90411 3.5895 8 4.00618 8.76713C4.52704 9.53425 4.94372 10.3014 5.46457 10.9589C5.98543 11.6164 6.29794 12.0548 6.40211 12.274C6.61045 12.4932 6.71461 12.6027 6.81879 12.7123L7.13132 13.0411C7.33966 13.2603 7.65217 13.589 8.06885 13.9178C8.48554 14.2466 9.00639 14.5753 9.52724 14.9041C10.0481 15.2329 10.6731 15.4521 11.2982 15.6712C12.0274 15.8904 12.6524 16 13.2774 15.8904H14.84C15.1525 15.8904 15.3608 15.7808 15.5692 15.5616L15.6733 15.4521C15.6733 15.3425 15.7775 15.3425 15.7775 15.2329C15.7775 15.1233 15.7775 15.0137 15.7775 14.7945C15.7775 14.3562 15.7775 14.0274 15.8817 13.6986C15.9859 13.3699 15.9859 13.1507 16.09 12.9315C16.1942 12.7123 16.2984 12.6027 16.4025 12.4932C16.5067 12.3836 16.6109 12.274 16.6109 12.274H16.715C16.9234 12.1644 17.2359 12.274 17.4443 12.4932C17.7568 12.7123 18.0693 13.0411 18.2776 13.3699C18.486 13.6986 18.7985 14.0274 19.2152 14.4658C19.6319 14.9041 19.9444 15.2329 20.1527 15.3425L20.4652 15.5616C20.6736 15.6712 20.8819 15.7808 21.1944 15.8904C21.5069 16 21.7153 16 21.9236 16L25.4654 15.8904C25.778 15.8904 26.0905 15.7808 26.2988 15.6712C26.5071 15.5617 26.6113 15.4521 26.6113 15.2329C26.6113 15.1233 26.6113 14.9041 26.6113 14.7945C26.403 14.5754 26.403 14.4658 26.403 14.3562Z" fill="#9A9AAF" fill-opacity="0.5"/>
<defs>
<linearGradient id="paint0_linear_13_162" x1="2.34671" y1="-10.4" x2="33.9216" y2="-1.93373" gradientUnits="userSpaceOnUse">
<stop stop-color="#3C2665"/>
<stop offset="1" stop-color="#4F3CA7"/>
</linearGradient>
</defs>
</svg>
