<svg width="21" height="18" viewBox="0 0 21 18" fill="none" xmlns="http://www.w3.org/2000/svg">
<path d="M21.0001 6.90908C21.0001 6.36363 20.9257 5.72727 20.9257 5C20.8512 4.27273 20.7767 3.54545 20.7023 2.90909C20.5534 2.18182 20.33 1.63637 19.8833 1.18182C19.511 0.727275 18.9899 0.45454 18.4687 0.363631C16.7563 0.0909035 14.2249 0 10.8001 0C7.37529 0 4.76944 0.0909035 3.13148 0.363631C2.61031 0.45454 2.08915 0.727275 1.71689 1.18182C1.34462 1.63637 1.04681 2.18182 0.897903 2.90909C0.748998 3.54545 0.674555 4.18182 0.674555 5C0.600102 5.72727 0.600098 6.36363 0.600098 6.90908C0.600098 7.45454 0.600098 8.0909 0.600098 8.99999C0.600098 9.90908 0.600098 10.6364 0.600098 11.0909C0.600098 11.6364 0.674555 12.2727 0.674555 13C0.749007 13.7273 0.823451 14.4545 0.897903 15.0909C1.04681 15.8182 1.27017 16.3636 1.71689 16.8182C2.08915 17.2727 2.61031 17.5454 3.13148 17.6364C4.84389 17.9091 7.37529 18 10.8001 18C14.2249 18 16.8308 17.9091 18.4687 17.6364C18.9899 17.5454 19.511 17.2727 19.8833 16.8182C20.2556 16.3636 20.5534 15.8182 20.7023 15.0909C20.8512 14.4545 20.9257 13.8182 20.9257 13C21.0001 12.2727 21.0001 11.6364 21.0001 11.0909C21.0001 10.5455 21.0001 9.90908 21.0001 8.99999C21.0001 8.0909 21.0001 7.36363 21.0001 6.90908ZM14.7461 9.72727L8.86434 14.1818C8.78988 14.2727 8.64098 14.3636 8.49207 14.3636C8.34317 14.3636 8.26872 14.3636 8.11981 14.2727C7.89645 14.0909 7.74755 13.8182 7.74755 13.4545V4.45454C7.74755 4.0909 7.89645 3.81818 8.11981 3.63636C8.34317 3.45454 8.64098 3.45454 8.86434 3.63636L14.7461 8.0909C14.9694 8.27272 15.1183 8.54545 15.1183 8.81818C15.1183 9.09091 14.9694 9.54545 14.7461 9.72727Z" fill="url(#paint0_linear_13_170)"/>
<path d="M21.0001 6.90908C21.0001 6.36363 20.9257 5.72727 20.9257 5C20.8512 4.27273 20.7767 3.54545 20.7023 2.90909C20.5534 2.18182 20.33 1.63637 19.8833 1.18182C19.511 0.727275 18.9899 0.45454 18.4687 0.363631C16.7563 0.0909035 14.2249 0 10.8001 0C7.37529 0 4.76944 0.0909035 3.13148 0.363631C2.61031 0.45454 2.08915 0.727275 1.71689 1.18182C1.34462 1.63637 1.04681 2.18182 0.897903 2.90909C0.748998 3.54545 0.674555 4.18182 0.674555 5C0.600102 5.72727 0.600098 6.36363 0.600098 6.90908C0.600098 7.45454 0.600098 8.0909 0.600098 8.99999C0.600098 9.90908 0.600098 10.6364 0.600098 11.0909C0.600098 11.6364 0.674555 12.2727 0.674555 13C0.749007 13.7273 0.823451 14.4545 0.897903 15.0909C1.04681 15.8182 1.27017 16.3636 1.71689 16.8182C2.08915 17.2727 2.61031 17.5454 3.13148 17.6364C4.84389 17.9091 7.37529 18 10.8001 18C14.2249 18 16.8308 17.9091 18.4687 17.6364C18.9899 17.5454 19.511 17.2727 19.8833 16.8182C20.2556 16.3636 20.5534 15.8182 20.7023 15.0909C20.8512 14.4545 20.9257 13.8182 20.9257 13C21.0001 12.2727 21.0001 11.6364 21.0001 11.0909C21.0001 10.5455 21.0001 9.90908 21.0001 8.99999C21.0001 8.0909 21.0001 7.36363 21.0001 6.90908ZM14.7461 9.72727L8.86434 14.1818C8.78988 14.2727 8.64098 14.3636 8.49207 14.3636C8.34317 14.3636 8.26872 14.3636 8.11981 14.2727C7.89645 14.0909 7.74755 13.8182 7.74755 13.4545V4.45454C7.74755 4.0909 7.89645 3.81818 8.11981 3.63636C8.34317 3.45454 8.64098 3.45454 8.86434 3.63636L14.7461 8.0909C14.9694 8.27272 15.1183 8.54545 15.1183 8.81818C15.1183 9.09091 14.9694 9.54545 14.7461 9.72727Z" fill="#9A9AAF" fill-opacity="0.5"/>
<defs>
<linearGradient id="paint0_linear_13_170" x1="2.06677" y1="-11.7" x2="27.5585" y2="-6.96601" gradientUnits="userSpaceOnUse">
<stop stop-color="#3C2665"/>
<stop offset="1" stop-color="#4F3CA7"/>
</linearGradient>
</defs>
</svg>
