<svg width="24" height="20" viewBox="0 0 24 20" fill="none" xmlns="http://www.w3.org/2000/svg">
<path d="M18 8.99999C18 9.55227 17.5523 9.99999 17 9.99999C16.4477 9.99999 16 9.55227 16 8.99999C16 8.44771 16.4477 7.99999 17 7.99999C17.5523 7.99999 18 8.44771 18 8.99999Z" fill="white"/>
<path d="M16 11C16 11.5523 15.5523 12 15 12C14.4477 12 14 11.5523 14 11C14 10.4477 14.4477 9.99999 15 9.99999C15.5523 9.99999 16 10.4477 16 11Z" fill="white"/>
<path d="M20 11C20 11.5523 19.5523 12 19 12C18.4477 12 18 11.5523 18 11C18 10.4477 18.4477 9.99999 19 9.99999C19.5523 9.99999 20 10.4477 20 11Z" fill="white"/>
<path d="M18 13C18 13.5523 17.5523 14 17 14C16.4477 14 16 13.5523 16 13C16 12.4477 16.4477 12 17 12C17.5523 12 18 12.4477 18 13Z" fill="white"/>
<path d="M7.74992 8.99999C7.74992 8.58578 7.41413 8.24999 6.99992 8.24999C6.5857 8.24999 6.24992 8.58578 6.24992 8.99999V10.25H4.99992C4.5857 10.25 4.24992 10.5858 4.24992 11C4.24992 11.4142 4.5857 11.75 4.99992 11.75H6.24992V13C6.24992 13.4142 6.5857 13.75 6.99992 13.75C7.41413 13.75 7.74992 13.4142 7.74992 13V11.75H8.99992C9.41413 11.75 9.74992 11.4142 9.74992 11C9.74992 10.5858 9.41413 10.25 8.99992 10.25H7.74992V8.99999Z" fill="white"/>
<path fill-rule="evenodd" clip-rule="evenodd" d="M16.7041 1.25818C16.8467 0.869286 16.647 0.438428 16.2581 0.295833C15.8692 0.153238 15.4384 0.352904 15.2958 0.741799L15.0535 1.40241C14.9069 1.80231 14.5263 2.06817 14.1003 2.06817C12.91 2.06817 11.8826 2.90259 11.6385 4.06764L11.2925 5.71911C11.2339 5.70923 11.1756 5.69811 11.1174 5.68576C10.6992 5.59699 10.2841 5.41668 9.2588 4.96098L8.72782 4.72499C8.02317 4.41181 7.26064 4.24999 6.48954 4.24999C3.13575 4.24999 0.559506 7.22042 1.0338 10.5405L1.2647 12.1568L2.72098 17.2537C3.14314 18.7313 4.49364 19.75 6.03033 19.75C7.20145 19.75 8.2922 19.1545 8.92549 18.1694L9.29986 17.587C10.5634 15.6216 13.4365 15.6216 14.7 17.587L14.929 17.9433C15.6529 19.0693 16.8997 19.75 18.2383 19.75C20.1961 19.75 21.856 18.3104 22.1329 16.3722L22.966 10.5405C23.4403 7.22042 20.8641 4.24999 17.5103 4.24999C16.7392 4.24999 15.9767 4.41181 15.272 4.72499L14.741 4.96098C13.7157 5.41668 13.3006 5.59699 12.8825 5.68576C12.8649 5.68949 12.8473 5.6931 12.8298 5.6966L13.1066 4.37524C13.2052 3.90498 13.6198 3.56817 14.1003 3.56817C15.1555 3.56817 16.0986 2.90952 16.4618 1.91879L16.7041 1.25818ZM2.51873 10.3284C2.17352 7.91194 4.04857 5.74999 6.48954 5.74999C7.05077 5.74999 7.60575 5.86777 8.11861 6.0957L8.73052 6.36767C9.64954 6.77624 10.215 7.02763 10.8059 7.15306C11.1642 7.22913 11.528 7.27057 11.8923 7.27739C12.3283 7.28556 12.765 7.24412 13.1939 7.15306C13.7848 7.02763 14.3503 6.77624 15.2693 6.36767L15.8812 6.0957C16.3941 5.86777 16.9491 5.74999 17.5103 5.74999C19.9513 5.74999 21.8263 7.91194 21.4811 10.3284L20.648 16.1601C20.4767 17.3593 19.4497 18.25 18.2383 18.25C17.4101 18.25 16.6386 17.8288 16.1908 17.1321L15.9617 16.7759C14.1078 13.8919 9.89206 13.8919 8.03809 16.7759L7.66372 17.3582C7.30643 17.914 6.69105 18.25 6.03033 18.25C5.16336 18.25 4.40144 17.6753 4.16326 16.8417L2.73513 11.8432L2.51873 10.3284Z" fill="white"/>
</svg>
