<svg width="9" height="6" viewBox="0 0 9 6" fill="none" xmlns="http://www.w3.org/2000/svg">
<path d="M8.53026 4.5612C8.72912 4.83487 8.72768 5.27661 8.52704 5.54785C8.3264 5.81909 8.00254 5.81712 7.80369 5.54345L6.61205 3.90348C6.12842 3.2379 5.79559 2.78134 5.51356 2.47241C5.23961 2.17232 5.06365 2.06937 4.90606 2.04197C4.8071 2.02477 4.70698 2.02477 4.60802 2.04197C4.45043 2.06937 4.27446 2.17232 4.00051 2.47241C3.71849 2.78134 3.38565 3.2379 2.90203 3.90348L1.71039 5.54345C1.51153 5.81712 1.18768 5.81909 0.98704 5.54785C0.786401 5.27661 0.784956 4.83487 0.983812 4.5612L2.19693 2.89167C2.65382 2.26287 3.02724 1.74894 3.35996 1.38447C3.70595 1.00547 4.05713 0.731112 4.47868 0.657823C4.66351 0.625687 4.85056 0.625687 5.0354 0.657823C5.45695 0.731112 5.80813 1.00547 6.15412 1.38447C6.48684 1.74894 6.86025 2.26286 7.31714 2.89167L8.53026 4.5612Z" fill="white"/>
<path d="M8.53026 4.5612C8.72912 4.83487 8.72768 5.27661 8.52704 5.54785C8.3264 5.81909 8.00254 5.81712 7.80369 5.54345L6.61205 3.90348C6.12842 3.2379 5.79559 2.78134 5.51356 2.47241C5.23961 2.17232 5.06365 2.06937 4.90606 2.04197C4.8071 2.02477 4.70698 2.02477 4.60802 2.04197C4.45043 2.06937 4.27446 2.17232 4.00051 2.47241C3.71849 2.78134 3.38565 3.2379 2.90203 3.90348L1.71039 5.54345C1.51153 5.81712 1.18768 5.81909 0.98704 5.54785C0.786401 5.27661 0.784956 4.83487 0.983812 4.5612L2.19693 2.89167C2.65382 2.26287 3.02724 1.74894 3.35996 1.38447C3.70595 1.00547 4.05713 0.731112 4.47868 0.657823C4.66351 0.625687 4.85056 0.625687 5.0354 0.657823C5.45695 0.731112 5.80813 1.00547 6.15412 1.38447C6.48684 1.74894 6.86025 2.26286 7.31714 2.89167L8.53026 4.5612Z" fill="url(#paint0_linear_116_6099)"/>
<path d="M8.53026 4.5612C8.72912 4.83487 8.72768 5.27661 8.52704 5.54785C8.3264 5.81909 8.00254 5.81712 7.80369 5.54345L6.61205 3.90348C6.12842 3.2379 5.79559 2.78134 5.51356 2.47241C5.23961 2.17232 5.06365 2.06937 4.90606 2.04197C4.8071 2.02477 4.70698 2.02477 4.60802 2.04197C4.45043 2.06937 4.27446 2.17232 4.00051 2.47241C3.71849 2.78134 3.38565 3.2379 2.90203 3.90348L1.71039 5.54345C1.51153 5.81712 1.18768 5.81909 0.98704 5.54785C0.786401 5.27661 0.784956 4.83487 0.983812 4.5612L2.19693 2.89167C2.65382 2.26287 3.02724 1.74894 3.35996 1.38447C3.70595 1.00547 4.05713 0.731112 4.47868 0.657823C4.66351 0.625687 4.85056 0.625687 5.0354 0.657823C5.45695 0.731112 5.80813 1.00547 6.15412 1.38447C6.48684 1.74894 6.86025 2.26286 7.31714 2.89167L8.53026 4.5612Z" fill="url(#paint1_linear_116_6099)" fill-opacity="0.2" style="mix-blend-mode:lighten"/>
<defs>
<linearGradient id="paint0_linear_116_6099" x1="-20.7322" y1="0.505813" x2="-13.5922" y2="17.6946" gradientUnits="userSpaceOnUse">
<stop stop-color="#272755"/>
<stop offset="0.973958" stop-color="#272755" stop-opacity="0"/>
</linearGradient>
<linearGradient id="paint1_linear_116_6099" x1="8.2096" y1="5.53256" x2="7.71585" y2="0.291795" gradientUnits="userSpaceOnUse">
<stop stop-color="#FF55FF"/>
<stop offset="1" stop-color="#05CCFF"/>
</linearGradient>
</defs>
</svg>
