<svg width="15" height="50" viewBox="0 0 15 50" fill="none" xmlns="http://www.w3.org/2000/svg">
<line x1="7.25" y1="17.5" x2="7.25" stroke="url(#paint0_linear_111_4071)" stroke-width="0.5" stroke-dasharray="1 1"/>
<g clip-path="url(#clip0_111_4071)">
<path fill-rule="evenodd" clip-rule="evenodd" d="M7.25 17.75C3.38401 17.75 0.25 20.884 0.25 24.75C0.25 28.616 3.38401 31.75 7.25 31.75C11.116 31.75 14.25 28.616 14.25 24.75C14.25 20.884 11.116 17.75 7.25 17.75ZM1.22674 24.75C1.22674 21.4234 3.92345 18.7267 7.25 18.7267C10.5766 18.7267 13.2733 21.4234 13.2733 24.75C13.2733 28.0766 10.5766 30.7733 7.25 30.7733C3.92345 30.7733 1.22674 28.0766 1.22674 24.75Z" fill="#605080"/>
<path d="M6.33216 22.1037C6.14059 21.9645 5.83137 21.9656 5.6415 22.106C5.45164 22.2464 5.45302 22.4731 5.64459 22.6123L6.79256 23.4465C7.25847 23.785 7.57806 24.018 7.79431 24.2154C8.00438 24.4072 8.07644 24.5304 8.09562 24.6407C8.10766 24.71 8.10766 24.78 8.09562 24.8493C8.07644 24.9596 8.00437 25.0828 7.79431 25.2746C7.57806 25.472 7.25847 25.705 6.79257 26.0435L5.64459 26.8777C5.45302 27.0169 5.45164 27.2436 5.6415 27.384C5.83137 27.5244 6.14059 27.5255 6.33216 27.3863L7.50083 26.5371C7.94099 26.2173 8.30075 25.9559 8.55587 25.723C8.82117 25.4808 9.01322 25.2349 9.06452 24.9399C9.08702 24.8105 9.08702 24.6795 9.06452 24.5501C9.01322 24.2551 8.82117 24.0092 8.55587 23.767C8.30074 23.5341 7.941 23.2727 7.50083 22.9529L6.33216 22.1037Z" fill="white"/>
<path d="M6.33216 22.1037C6.14059 21.9645 5.83137 21.9656 5.6415 22.106C5.45164 22.2464 5.45302 22.4731 5.64459 22.6123L6.79256 23.4465C7.25847 23.785 7.57806 24.018 7.79431 24.2154C8.00438 24.4072 8.07644 24.5304 8.09562 24.6407C8.10766 24.71 8.10766 24.78 8.09562 24.8493C8.07644 24.9596 8.00437 25.0828 7.79431 25.2746C7.57806 25.472 7.25847 25.705 6.79257 26.0435L5.64459 26.8777C5.45302 27.0169 5.45164 27.2436 5.6415 27.384C5.83137 27.5244 6.14059 27.5255 6.33216 27.3863L7.50083 26.5371C7.94099 26.2173 8.30075 25.9559 8.55587 25.723C8.82117 25.4808 9.01322 25.2349 9.06452 24.9399C9.08702 24.8105 9.08702 24.6795 9.06452 24.5501C9.01322 24.2551 8.82117 24.0092 8.55587 23.767C8.30074 23.5341 7.941 23.2727 7.50083 22.9529L6.33216 22.1037Z" fill="url(#paint1_linear_111_4071)"/>
<path d="M6.33216 22.1037C6.14059 21.9645 5.83137 21.9656 5.6415 22.106C5.45164 22.2464 5.45302 22.4731 5.64459 22.6123L6.79256 23.4465C7.25847 23.785 7.57806 24.018 7.79431 24.2154C8.00438 24.4072 8.07644 24.5304 8.09562 24.6407C8.10766 24.71 8.10766 24.78 8.09562 24.8493C8.07644 24.9596 8.00437 25.0828 7.79431 25.2746C7.57806 25.472 7.25847 25.705 6.79257 26.0435L5.64459 26.8777C5.45302 27.0169 5.45164 27.2436 5.6415 27.384C5.83137 27.5244 6.14059 27.5255 6.33216 27.3863L7.50083 26.5371C7.94099 26.2173 8.30075 25.9559 8.55587 25.723C8.82117 25.4808 9.01322 25.2349 9.06452 24.9399C9.08702 24.8105 9.08702 24.6795 9.06452 24.5501C9.01322 24.2551 8.82117 24.0092 8.55587 23.767C8.30074 23.5341 7.941 23.2727 7.50083 22.9529L6.33216 22.1037Z" fill="url(#paint2_linear_111_4071)" fill-opacity="0.2" style="mix-blend-mode:lighten"/>
</g>
<line y1="-0.25" x2="17.5" y2="-0.25" transform="matrix(0 1 1 0 7.5 32.5)" stroke="url(#paint3_linear_111_4071)" stroke-width="0.5" stroke-dasharray="1 1"/>
<defs>
<linearGradient id="paint0_linear_111_4071" x1="8.50024" y1="17.5" x2="8.50024" y2="-4.00593e-09" gradientUnits="userSpaceOnUse">
<stop stop-color="#605080"/>
<stop offset="1" stop-color="#605080" stop-opacity="0"/>
</linearGradient>
<linearGradient id="paint1_linear_111_4071" x1="9.17093" y1="42.5875" x2="-2.86121" y2="37.5894" gradientUnits="userSpaceOnUse">
<stop stop-color="#272755"/>
<stop offset="0.973958" stop-color="#272755" stop-opacity="0"/>
</linearGradient>
<linearGradient id="paint2_linear_111_4071" x1="5.65221" y1="22.3282" x2="9.32074" y2="22.6738" gradientUnits="userSpaceOnUse">
<stop stop-color="#FF55FF"/>
<stop offset="1" stop-color="#05CCFF"/>
</linearGradient>
<linearGradient id="paint3_linear_111_4071" x1="4.00593e-09" y1="1.00024" x2="17.5" y2="1.00024" gradientUnits="userSpaceOnUse">
<stop stop-color="#605080"/>
<stop offset="1" stop-color="#605080" stop-opacity="0"/>
</linearGradient>
<clipPath id="clip0_111_4071">
<rect width="15" height="15" fill="white" transform="translate(0 17.5)"/>
</clipPath>
</defs>
</svg>
