<svg width="15" height="50" viewBox="0 0 15 50" fill="none" xmlns="http://www.w3.org/2000/svg">
<line y1="-0.25" x2="17.5" y2="-0.25" transform="matrix(0 -1 -1 0 7.5 17.5)" stroke="url(#paint0_linear_111_4081)" stroke-width="0.5" stroke-dasharray="1 1"/>
<g clip-path="url(#clip0_111_4081)">
<path fill-rule="evenodd" clip-rule="evenodd" d="M7.75 17.75C11.616 17.75 14.75 20.884 14.75 24.75C14.75 28.616 11.616 31.75 7.75 31.75C3.88401 31.75 0.75 28.616 0.75 24.75C0.75 20.884 3.88401 17.75 7.75 17.75ZM13.7733 24.75C13.7733 21.4234 11.0766 18.7267 7.75 18.7267C4.42345 18.7267 1.72674 21.4234 1.72674 24.75C1.72674 28.0766 4.42345 30.7733 7.75 30.7733C11.0766 30.7733 13.7733 28.0766 13.7733 24.75Z" fill="#605080"/>
<path d="M8.66784 22.1037C8.85941 21.9645 9.16863 21.9656 9.3585 22.106C9.54836 22.2464 9.54698 22.4731 9.35541 22.6123L8.20744 23.4465C7.74153 23.785 7.42194 24.018 7.20569 24.2154C6.99562 24.4072 6.92356 24.5304 6.90438 24.6407C6.89234 24.71 6.89234 24.78 6.90438 24.8493C6.92356 24.9596 6.99563 25.0828 7.20569 25.2746C7.42194 25.472 7.74153 25.705 8.20743 26.0435L9.35541 26.8777C9.54698 27.0169 9.54836 27.2436 9.3585 27.384C9.16863 27.5244 8.85941 27.5255 8.66784 27.3863L7.49917 26.5371C7.05901 26.2173 6.69925 25.9559 6.44413 25.723C6.17883 25.4808 5.98678 25.2349 5.93548 24.9399C5.91298 24.8105 5.91298 24.6795 5.93548 24.5501C5.98678 24.2551 6.17883 24.0092 6.44413 23.767C6.69926 23.5341 7.059 23.2727 7.49917 22.9529L8.66784 22.1037Z" fill="white"/>
<path d="M8.66784 22.1037C8.85941 21.9645 9.16863 21.9656 9.3585 22.106C9.54836 22.2464 9.54698 22.4731 9.35541 22.6123L8.20744 23.4465C7.74153 23.785 7.42194 24.018 7.20569 24.2154C6.99562 24.4072 6.92356 24.5304 6.90438 24.6407C6.89234 24.71 6.89234 24.78 6.90438 24.8493C6.92356 24.9596 6.99563 25.0828 7.20569 25.2746C7.42194 25.472 7.74153 25.705 8.20743 26.0435L9.35541 26.8777C9.54698 27.0169 9.54836 27.2436 9.3585 27.384C9.16863 27.5244 8.85941 27.5255 8.66784 27.3863L7.49917 26.5371C7.05901 26.2173 6.69925 25.9559 6.44413 25.723C6.17883 25.4808 5.98678 25.2349 5.93548 24.9399C5.91298 24.8105 5.91298 24.6795 5.93548 24.5501C5.98678 24.2551 6.17883 24.0092 6.44413 23.767C6.69926 23.5341 7.059 23.2727 7.49917 22.9529L8.66784 22.1037Z" fill="url(#paint1_linear_111_4081)"/>
<path d="M8.66784 22.1037C8.85941 21.9645 9.16863 21.9656 9.3585 22.106C9.54836 22.2464 9.54698 22.4731 9.35541 22.6123L8.20744 23.4465C7.74153 23.785 7.42194 24.018 7.20569 24.2154C6.99562 24.4072 6.92356 24.5304 6.90438 24.6407C6.89234 24.71 6.89234 24.78 6.90438 24.8493C6.92356 24.9596 6.99563 25.0828 7.20569 25.2746C7.42194 25.472 7.74153 25.705 8.20743 26.0435L9.35541 26.8777C9.54698 27.0169 9.54836 27.2436 9.3585 27.384C9.16863 27.5244 8.85941 27.5255 8.66784 27.3863L7.49917 26.5371C7.05901 26.2173 6.69925 25.9559 6.44413 25.723C6.17883 25.4808 5.98678 25.2349 5.93548 24.9399C5.91298 24.8105 5.91298 24.6795 5.93548 24.5501C5.98678 24.2551 6.17883 24.0092 6.44413 23.767C6.69926 23.5341 7.059 23.2727 7.49917 22.9529L8.66784 22.1037Z" fill="url(#paint2_linear_111_4081)" fill-opacity="0.2" style="mix-blend-mode:lighten"/>
</g>
<line x1="7.75" y1="32.5" x2="7.75" y2="50" stroke="url(#paint3_linear_111_4081)" stroke-width="0.5" stroke-dasharray="1 1"/>
<defs>
<linearGradient id="paint0_linear_111_4081" x1="4.00593e-09" y1="1.00024" x2="17.5" y2="1.00024" gradientUnits="userSpaceOnUse">
<stop stop-color="#605080"/>
<stop offset="1" stop-color="#605080" stop-opacity="0"/>
</linearGradient>
<linearGradient id="paint1_linear_111_4081" x1="5.82907" y1="42.5875" x2="17.8612" y2="37.5894" gradientUnits="userSpaceOnUse">
<stop stop-color="#272755"/>
<stop offset="0.973958" stop-color="#272755" stop-opacity="0"/>
</linearGradient>
<linearGradient id="paint2_linear_111_4081" x1="9.34779" y1="22.3282" x2="5.67926" y2="22.6738" gradientUnits="userSpaceOnUse">
<stop stop-color="#FF55FF"/>
<stop offset="1" stop-color="#05CCFF"/>
</linearGradient>
<linearGradient id="paint3_linear_111_4081" x1="6.49976" y1="32.5" x2="6.49976" y2="50" gradientUnits="userSpaceOnUse">
<stop stop-color="#605080"/>
<stop offset="1" stop-color="#605080" stop-opacity="0"/>
</linearGradient>
<clipPath id="clip0_111_4081">
<rect width="15" height="15" fill="white" transform="matrix(-1 0 0 1 15 17.5)"/>
</clipPath>
</defs>
</svg>
