<svg width="20" height="24" viewBox="0 0 20 24" fill="none" xmlns="http://www.w3.org/2000/svg">
<path d="M10.75 10.5C10.75 10.0858 10.4142 9.75003 10 9.75003C9.58579 9.75003 9.25 10.0858 9.25 10.5V12.75H7C6.58579 12.75 6.25 13.0858 6.25 13.5C6.25 13.9142 6.58579 14.25 7 14.25H9.25V16.5C9.25 16.9142 9.58579 17.25 10 17.25C10.4142 17.25 10.75 16.9142 10.75 16.5V14.25H13C13.4142 14.25 13.75 13.9142 13.75 13.5C13.75 13.0858 13.4142 12.75 13 12.75H10.75V10.5Z" fill="#FAFAFA"/>
<path fill-rule="evenodd" clip-rule="evenodd" d="M9.83822 0.750016C8.13194 0.749748 7.09073 0.749584 6.22321 1.03146C4.47269 1.60024 3.10026 2.97267 2.53148 4.72319C2.5052 4.80408 2.48146 4.88585 2.46002 4.96892C2.03779 5.29879 1.66348 5.68626 1.34815 6.12027C0.762324 6.92659 0.500006 7.87097 0.373728 9.03651C0.249985 10.1786 0.249992 11.6182 0.25 13.4548V13.5453C0.249992 15.3818 0.249985 16.8214 0.373728 17.9636C0.500006 19.1291 0.762324 20.0735 1.34815 20.8798C1.70281 21.3679 2.13209 21.7972 2.62024 22.1519C3.42656 22.7377 4.37094 23 5.53648 23.1263C6.67859 23.25 8.11817 23.25 9.95465 23.25H10.0453C11.8818 23.25 13.3214 23.25 14.4635 23.1263C15.6291 23 16.5734 22.7377 17.3798 22.1519C17.8679 21.7972 18.2972 21.3679 18.6518 20.8798C19.2377 20.0735 19.5 19.1291 19.6263 17.9636C19.75 16.8214 19.75 15.3819 19.75 13.5454V13.4548C19.75 11.6183 19.75 10.1786 19.6263 9.03651C19.5 7.87097 19.2377 6.92659 18.6518 6.12027C18.3366 5.68631 17.9623 5.29887 17.5401 4.96903C17.5187 4.88592 17.4949 4.80411 17.4686 4.72319C16.8999 2.97267 15.5274 1.60024 13.7769 1.03146C12.9094 0.749584 11.8682 0.749748 10.1619 0.750016H9.83822ZM5.59818 3.86722C5.22439 3.90594 4.87305 3.95814 4.54152 4.02994C5.06367 3.29896 5.81122 2.74251 6.68673 2.45804C7.29844 2.25929 8.0804 2.25003 10.0001 2.25003C11.9197 2.25003 12.7017 2.25929 13.3134 2.45804C14.1889 2.74252 14.9365 3.29898 15.4586 4.02997C15.1271 3.95816 14.7757 3.90595 14.4019 3.86723C13.2703 3.75002 11.8487 3.75003 10.0428 3.75003H9.95718C8.15135 3.75003 6.72979 3.75002 5.59818 3.86722ZM3.55694 6.02272C4.0652 5.67163 4.71896 5.46631 5.75271 5.35924C6.79808 5.25097 8.14216 5.25003 10 5.25003C11.8579 5.25003 13.202 5.25097 14.2474 5.35925C15.2811 5.46633 15.9349 5.67166 16.4432 6.02279C16.4455 6.02438 16.4478 6.02598 16.4501 6.02758C16.4662 6.03877 16.4822 6.05015 16.4981 6.06171C16.8589 6.32385 17.1762 6.64114 17.4383 7.00195C17.8074 7.50995 18.0225 8.16017 18.135 9.19808C18.249 10.25 18.25 11.6085 18.25 13.5C18.25 15.3916 18.249 16.75 18.135 17.802C18.0225 18.8399 17.8074 19.4901 17.4383 19.9981C17.1762 20.3589 16.8589 20.6762 16.4981 20.9384C15.9901 21.3074 15.3399 21.5226 14.302 21.635C13.25 21.749 11.8916 21.75 10 21.75C8.10843 21.75 6.74999 21.749 5.69804 21.635C4.66013 21.5226 4.00992 21.3074 3.50191 20.9384C3.14111 20.6762 2.82382 20.3589 2.56168 19.9981C2.19259 19.4901 1.97745 18.8399 1.865 17.802C1.75103 16.75 1.75 15.3916 1.75 13.5C1.75 11.6085 1.75103 10.25 1.865 9.19808C1.97745 8.16017 2.19259 7.50995 2.56168 7.00195C2.82382 6.64114 3.14111 6.32385 3.50191 6.06171C3.52013 6.04847 3.53847 6.03548 3.55694 6.02272Z" fill="#FAFAFA"/>
</svg>
