<svg width="15" height="107" viewBox="0 0 15 107" fill="none" xmlns="http://www.w3.org/2000/svg">
<line x1="7.25" y1="46" x2="7.25" stroke="url(#paint0_linear_119_43241)" stroke-width="0.5" stroke-dasharray="1 1"/>
<path fill-rule="evenodd" clip-rule="evenodd" d="M7.25 46.25C3.38401 46.25 0.25 49.384 0.25 53.25C0.25 57.116 3.38401 60.25 7.25 60.25C11.116 60.25 14.25 57.116 14.25 53.25C14.25 49.384 11.116 46.25 7.25 46.25ZM1.22674 53.25C1.22674 49.9234 3.92345 47.2267 7.25 47.2267C10.5766 47.2267 13.2733 49.9234 13.2733 53.25C13.2733 56.5766 10.5766 59.2733 7.25 59.2733C3.92345 59.2733 1.22674 56.5766 1.22674 53.25Z" fill="#605080"/>
<path d="M6.33216 50.6037C6.14059 50.4645 5.83137 50.4656 5.6415 50.606C5.45164 50.7464 5.45302 50.9731 5.64459 51.1123L6.79256 51.9465C7.25847 52.285 7.57806 52.518 7.79431 52.7154C8.00438 52.9072 8.07644 53.0304 8.09562 53.1407C8.10766 53.21 8.10766 53.28 8.09562 53.3493C8.07644 53.4596 8.00437 53.5828 7.79431 53.7746C7.57806 53.972 7.25847 54.205 6.79257 54.5435L5.64459 55.3777C5.45302 55.5169 5.45164 55.7436 5.6415 55.884C5.83137 56.0244 6.14059 56.0255 6.33216 55.8863L7.50083 55.0371C7.94099 54.7173 8.30075 54.4559 8.55587 54.223C8.82117 53.9808 9.01322 53.7349 9.06452 53.4399C9.08702 53.3105 9.08702 53.1795 9.06452 53.0501C9.01322 52.7551 8.82117 52.5092 8.55587 52.267C8.30074 52.0341 7.941 51.7727 7.50083 51.4529L6.33216 50.6037Z" fill="white"/>
<path d="M6.33216 50.6037C6.14059 50.4645 5.83137 50.4656 5.6415 50.606C5.45164 50.7464 5.45302 50.9731 5.64459 51.1123L6.79256 51.9465C7.25847 52.285 7.57806 52.518 7.79431 52.7154C8.00438 52.9072 8.07644 53.0304 8.09562 53.1407C8.10766 53.21 8.10766 53.28 8.09562 53.3493C8.07644 53.4596 8.00437 53.5828 7.79431 53.7746C7.57806 53.972 7.25847 54.205 6.79257 54.5435L5.64459 55.3777C5.45302 55.5169 5.45164 55.7436 5.6415 55.884C5.83137 56.0244 6.14059 56.0255 6.33216 55.8863L7.50083 55.0371C7.94099 54.7173 8.30075 54.4559 8.55587 54.223C8.82117 53.9808 9.01322 53.7349 9.06452 53.4399C9.08702 53.3105 9.08702 53.1795 9.06452 53.0501C9.01322 52.7551 8.82117 52.5092 8.55587 52.267C8.30074 52.0341 7.941 51.7727 7.50083 51.4529L6.33216 50.6037Z" fill="url(#paint1_linear_119_43241)"/>
<path d="M6.33216 50.6037C6.14059 50.4645 5.83137 50.4656 5.6415 50.606C5.45164 50.7464 5.45302 50.9731 5.64459 51.1123L6.79256 51.9465C7.25847 52.285 7.57806 52.518 7.79431 52.7154C8.00438 52.9072 8.07644 53.0304 8.09562 53.1407C8.10766 53.21 8.10766 53.28 8.09562 53.3493C8.07644 53.4596 8.00437 53.5828 7.79431 53.7746C7.57806 53.972 7.25847 54.205 6.79257 54.5435L5.64459 55.3777C5.45302 55.5169 5.45164 55.7436 5.6415 55.884C5.83137 56.0244 6.14059 56.0255 6.33216 55.8863L7.50083 55.0371C7.94099 54.7173 8.30075 54.4559 8.55587 54.223C8.82117 53.9808 9.01322 53.7349 9.06452 53.4399C9.08702 53.3105 9.08702 53.1795 9.06452 53.0501C9.01322 52.7551 8.82117 52.5092 8.55587 52.267C8.30074 52.0341 7.941 51.7727 7.50083 51.4529L6.33216 50.6037Z" fill="url(#paint2_linear_119_43241)" fill-opacity="0.2" style="mix-blend-mode:lighten"/>
<line y1="-0.25" x2="46" y2="-0.25" transform="matrix(0 1 1 0 7.5 61)" stroke="url(#paint3_linear_119_43241)" stroke-width="0.5" stroke-dasharray="1 1"/>
<defs>
<linearGradient id="paint0_linear_119_43241" x1="8.50024" y1="46" x2="8.50024" y2="-1.05299e-08" gradientUnits="userSpaceOnUse">
<stop stop-color="#605080"/>
<stop offset="1" stop-color="#605080" stop-opacity="0"/>
</linearGradient>
<linearGradient id="paint1_linear_119_43241" x1="9.17093" y1="71.0875" x2="-2.86121" y2="66.0894" gradientUnits="userSpaceOnUse">
<stop stop-color="#272755"/>
<stop offset="0.973958" stop-color="#272755" stop-opacity="0"/>
</linearGradient>
<linearGradient id="paint2_linear_119_43241" x1="5.65221" y1="50.8282" x2="9.32074" y2="51.1738" gradientUnits="userSpaceOnUse">
<stop stop-color="#FF55FF"/>
<stop offset="1" stop-color="#05CCFF"/>
</linearGradient>
<linearGradient id="paint3_linear_119_43241" x1="1.05299e-08" y1="1.00024" x2="46" y2="1.00024" gradientUnits="userSpaceOnUse">
<stop stop-color="#605080"/>
<stop offset="1" stop-color="#605080" stop-opacity="0"/>
</linearGradient>
</defs>
</svg>
