<svg width="15" height="107" viewBox="0 0 15 107" fill="none" xmlns="http://www.w3.org/2000/svg">
<line y1="-0.25" x2="46" y2="-0.25" transform="matrix(0 -1 -1 0 7.5 46)" stroke="url(#paint0_linear_116_20833)" stroke-width="0.5" stroke-dasharray="1 1"/>
<path fill-rule="evenodd" clip-rule="evenodd" d="M7.75 46.25C11.616 46.25 14.75 49.384 14.75 53.25C14.75 57.116 11.616 60.25 7.75 60.25C3.88401 60.25 0.75 57.116 0.75 53.25C0.75 49.384 3.88401 46.25 7.75 46.25ZM13.7733 53.25C13.7733 49.9234 11.0766 47.2267 7.75 47.2267C4.42345 47.2267 1.72674 49.9234 1.72674 53.25C1.72674 56.5766 4.42345 59.2733 7.75 59.2733C11.0766 59.2733 13.7733 56.5766 13.7733 53.25Z" fill="#605080"/>
<path d="M8.66784 50.6037C8.85941 50.4645 9.16863 50.4656 9.3585 50.606C9.54836 50.7464 9.54698 50.9731 9.35541 51.1123L8.20744 51.9465C7.74153 52.285 7.42194 52.518 7.20569 52.7154C6.99562 52.9072 6.92356 53.0304 6.90438 53.1407C6.89234 53.21 6.89234 53.28 6.90438 53.3493C6.92356 53.4596 6.99563 53.5828 7.20569 53.7746C7.42194 53.972 7.74153 54.205 8.20743 54.5435L9.35541 55.3777C9.54698 55.5169 9.54836 55.7436 9.3585 55.884C9.16863 56.0244 8.85941 56.0255 8.66784 55.8863L7.49917 55.0371C7.05901 54.7173 6.69925 54.4559 6.44413 54.223C6.17883 53.9808 5.98678 53.7349 5.93548 53.4399C5.91298 53.3105 5.91298 53.1795 5.93548 53.0501C5.98678 52.7551 6.17883 52.5092 6.44413 52.267C6.69926 52.0341 7.059 51.7727 7.49917 51.4529L8.66784 50.6037Z" fill="white"/>
<path d="M8.66784 50.6037C8.85941 50.4645 9.16863 50.4656 9.3585 50.606C9.54836 50.7464 9.54698 50.9731 9.35541 51.1123L8.20744 51.9465C7.74153 52.285 7.42194 52.518 7.20569 52.7154C6.99562 52.9072 6.92356 53.0304 6.90438 53.1407C6.89234 53.21 6.89234 53.28 6.90438 53.3493C6.92356 53.4596 6.99563 53.5828 7.20569 53.7746C7.42194 53.972 7.74153 54.205 8.20743 54.5435L9.35541 55.3777C9.54698 55.5169 9.54836 55.7436 9.3585 55.884C9.16863 56.0244 8.85941 56.0255 8.66784 55.8863L7.49917 55.0371C7.05901 54.7173 6.69925 54.4559 6.44413 54.223C6.17883 53.9808 5.98678 53.7349 5.93548 53.4399C5.91298 53.3105 5.91298 53.1795 5.93548 53.0501C5.98678 52.7551 6.17883 52.5092 6.44413 52.267C6.69926 52.0341 7.059 51.7727 7.49917 51.4529L8.66784 50.6037Z" fill="url(#paint1_linear_116_20833)"/>
<path d="M8.66784 50.6037C8.85941 50.4645 9.16863 50.4656 9.3585 50.606C9.54836 50.7464 9.54698 50.9731 9.35541 51.1123L8.20744 51.9465C7.74153 52.285 7.42194 52.518 7.20569 52.7154C6.99562 52.9072 6.92356 53.0304 6.90438 53.1407C6.89234 53.21 6.89234 53.28 6.90438 53.3493C6.92356 53.4596 6.99563 53.5828 7.20569 53.7746C7.42194 53.972 7.74153 54.205 8.20743 54.5435L9.35541 55.3777C9.54698 55.5169 9.54836 55.7436 9.3585 55.884C9.16863 56.0244 8.85941 56.0255 8.66784 55.8863L7.49917 55.0371C7.05901 54.7173 6.69925 54.4559 6.44413 54.223C6.17883 53.9808 5.98678 53.7349 5.93548 53.4399C5.91298 53.3105 5.91298 53.1795 5.93548 53.0501C5.98678 52.7551 6.17883 52.5092 6.44413 52.267C6.69926 52.0341 7.059 51.7727 7.49917 51.4529L8.66784 50.6037Z" fill="url(#paint2_linear_116_20833)" fill-opacity="0.2" style="mix-blend-mode:lighten"/>
<line x1="7.75" y1="61" x2="7.75" y2="107" stroke="url(#paint3_linear_116_20833)" stroke-width="0.5" stroke-dasharray="1 1"/>
<defs>
<linearGradient id="paint0_linear_116_20833" x1="1.05299e-08" y1="1.00024" x2="46" y2="1.00024" gradientUnits="userSpaceOnUse">
<stop stop-color="#605080"/>
<stop offset="1" stop-color="#605080" stop-opacity="0"/>
</linearGradient>
<linearGradient id="paint1_linear_116_20833" x1="5.82907" y1="71.0875" x2="17.8612" y2="66.0894" gradientUnits="userSpaceOnUse">
<stop stop-color="#272755"/>
<stop offset="0.973958" stop-color="#272755" stop-opacity="0"/>
</linearGradient>
<linearGradient id="paint2_linear_116_20833" x1="9.34779" y1="50.8282" x2="5.67926" y2="51.1738" gradientUnits="userSpaceOnUse">
<stop stop-color="#FF55FF"/>
<stop offset="1" stop-color="#05CCFF"/>
</linearGradient>
<linearGradient id="paint3_linear_116_20833" x1="6.49976" y1="61" x2="6.49976" y2="107" gradientUnits="userSpaceOnUse">
<stop stop-color="#605080"/>
<stop offset="1" stop-color="#605080" stop-opacity="0"/>
</linearGradient>
</defs>
</svg>
