<svg width="22" height="23" viewBox="0 0 22 23" fill="none" xmlns="http://www.w3.org/2000/svg">
<path d="M16.5588 9.00027C16.8351 8.69167 16.8089 8.21752 16.5003 7.94123C16.1917 7.66493 15.7175 7.69113 15.4412 7.99973L12.0721 11.7629C11.3894 12.5254 10.9296 13.0363 10.5365 13.3667C10.1621 13.6814 9.94213 13.75 9.75 13.75C9.55787 13.75 9.33794 13.6814 8.96348 13.3667C8.5704 13.0363 8.11064 12.5254 7.42794 11.7629L6.55877 10.7921C6.28248 10.4835 5.80833 10.4573 5.49973 10.7336C5.19113 11.0099 5.16493 11.484 5.44123 11.7926L6.34751 12.8049C6.98337 13.5152 7.51374 14.1076 7.99835 14.5149C8.51099 14.9458 9.06393 15.25 9.75 15.25C10.4361 15.25 10.989 14.9458 11.5016 14.5149C11.9862 14.1076 12.5166 13.5152 13.1524 12.805L16.5588 9.00027Z" fill="url(#paint0_angular_1130_7334)"/>
<path d="M16.5588 9.00027C16.8351 8.69167 16.8089 8.21752 16.5003 7.94123C16.1917 7.66493 15.7175 7.69113 15.4412 7.99973L12.0721 11.7629C11.3894 12.5254 10.9296 13.0363 10.5365 13.3667C10.1621 13.6814 9.94213 13.75 9.75 13.75C9.55787 13.75 9.33794 13.6814 8.96348 13.3667C8.5704 13.0363 8.11064 12.5254 7.42794 11.7629L6.55877 10.7921C6.28248 10.4835 5.80833 10.4573 5.49973 10.7336C5.19113 11.0099 5.16493 11.484 5.44123 11.7926L6.34751 12.8049C6.98337 13.5152 7.51374 14.1076 7.99835 14.5149C8.51099 14.9458 9.06393 15.25 9.75 15.25C10.4361 15.25 10.989 14.9458 11.5016 14.5149C11.9862 14.1076 12.5166 13.5152 13.1524 12.805L16.5588 9.00027Z" fill="url(#paint1_linear_1130_7334)"/>
<path fill-rule="evenodd" clip-rule="evenodd" d="M11 0.75C5.06294 0.75 0.25 5.56294 0.25 11.5C0.25 17.4371 5.06294 22.25 11 22.25C16.9371 22.25 21.75 17.4371 21.75 11.5C21.75 5.56294 16.9371 0.75 11 0.75ZM1.75 11.5C1.75 6.39137 5.89137 2.25 11 2.25C16.1086 2.25 20.25 6.39137 20.25 11.5C20.25 16.6086 16.1086 20.75 11 20.75C5.89137 20.75 1.75 16.6086 1.75 11.5Z" fill="url(#paint2_angular_1130_7334)"/>
<path fill-rule="evenodd" clip-rule="evenodd" d="M11 0.75C5.06294 0.75 0.25 5.56294 0.25 11.5C0.25 17.4371 5.06294 22.25 11 22.25C16.9371 22.25 21.75 17.4371 21.75 11.5C21.75 5.56294 16.9371 0.75 11 0.75ZM1.75 11.5C1.75 6.39137 5.89137 2.25 11 2.25C16.1086 2.25 20.25 6.39137 20.25 11.5C20.25 16.6086 16.1086 20.75 11 20.75C5.89137 20.75 1.75 16.6086 1.75 11.5Z" fill="url(#paint3_linear_1130_7334)"/>
<defs>
<radialGradient id="paint0_angular_1130_7334" cx="0" cy="0" r="1" gradientUnits="userSpaceOnUse" gradientTransform="translate(10.9997 11.5001) rotate(71.2486) scale(35.993 23.9041)">
<stop offset="0.158798" stop-color="#FF55FF"/>
<stop offset="0.578175" stop-color="#05CCFF" stop-opacity="0.98"/>
</radialGradient>
<linearGradient id="paint1_linear_1130_7334" x1="-13.0162" y1="49.1064" x2="33.4278" y2="22.6483" gradientUnits="userSpaceOnUse">
<stop stop-color="#3E296C" stop-opacity="0.15"/>
<stop offset="1" stop-color="#3F296D"/>
</linearGradient>
<radialGradient id="paint2_angular_1130_7334" cx="0" cy="0" r="1" gradientUnits="userSpaceOnUse" gradientTransform="translate(10.9997 11.5001) rotate(71.2486) scale(35.993 23.9041)">
<stop offset="0.158798" stop-color="#FF55FF"/>
<stop offset="0.578175" stop-color="#05CCFF" stop-opacity="0.98"/>
</radialGradient>
<linearGradient id="paint3_linear_1130_7334" x1="-13.0162" y1="49.1064" x2="33.4278" y2="22.6483" gradientUnits="userSpaceOnUse">
<stop stop-color="#3E296C" stop-opacity="0.15"/>
<stop offset="1" stop-color="#3F296D"/>
</linearGradient>
</defs>
</svg>
