<svg width="26" height="21" viewBox="0 0 26 21" fill="none" xmlns="http://www.w3.org/2000/svg">
<path fill-rule="evenodd" clip-rule="evenodd" d="M6.33492 0.25C2.97431 0.25 0.25 2.97431 0.25 6.33492C0.25 7.30923 0.808748 8.19722 1.68711 8.61883L2.25803 8.89287C3.60638 9.54008 3.60638 11.4599 2.25803 12.1071L1.68712 12.3812C0.808749 12.8028 0.25 13.6908 0.25 14.6651C0.25 18.0257 2.97431 20.75 6.33492 20.75H19.3508C22.7114 20.75 25.4357 18.0257 25.4357 14.6651C25.4357 13.6908 24.877 12.8028 23.9986 12.3812L23.4277 12.1071C22.0793 11.4599 22.0793 9.54008 23.4277 8.89287L23.9986 8.61883C24.877 8.19722 25.4357 7.30923 25.4357 6.33492C25.4357 2.97431 22.7114 0.25 19.3508 0.25H6.33492ZM2.00714 6.33492C2.00714 3.94476 3.94476 2.00714 6.33492 2.00714H19.3508C21.741 2.00714 23.6786 3.94476 23.6786 6.33492C23.6786 6.63346 23.5074 6.90554 23.2382 7.03473L22.6673 7.30877C19.9899 8.59391 19.9899 12.4061 22.6673 13.6912L23.2382 13.9653C23.5074 14.0945 23.6786 14.3665 23.6786 14.6651C23.6786 17.0552 21.741 18.9929 19.3508 18.9929H6.33492C3.94475 18.9929 2.00714 17.0552 2.00714 14.6651C2.00714 14.3665 2.17835 14.0945 2.44749 13.9653L3.0184 13.6912C5.69578 12.4061 5.69578 8.59391 3.0184 7.30877L2.44749 7.03473C2.17835 6.90554 2.00714 6.63346 2.00714 6.33492Z" fill="url(#paint0_angular_119_39495)"/>
<path fill-rule="evenodd" clip-rule="evenodd" d="M6.33492 0.25C2.97431 0.25 0.25 2.97431 0.25 6.33492C0.25 7.30923 0.808748 8.19722 1.68711 8.61883L2.25803 8.89287C3.60638 9.54008 3.60638 11.4599 2.25803 12.1071L1.68712 12.3812C0.808749 12.8028 0.25 13.6908 0.25 14.6651C0.25 18.0257 2.97431 20.75 6.33492 20.75H19.3508C22.7114 20.75 25.4357 18.0257 25.4357 14.6651C25.4357 13.6908 24.877 12.8028 23.9986 12.3812L23.4277 12.1071C22.0793 11.4599 22.0793 9.54008 23.4277 8.89287L23.9986 8.61883C24.877 8.19722 25.4357 7.30923 25.4357 6.33492C25.4357 2.97431 22.7114 0.25 19.3508 0.25H6.33492ZM2.00714 6.33492C2.00714 3.94476 3.94476 2.00714 6.33492 2.00714H19.3508C21.741 2.00714 23.6786 3.94476 23.6786 6.33492C23.6786 6.63346 23.5074 6.90554 23.2382 7.03473L22.6673 7.30877C19.9899 8.59391 19.9899 12.4061 22.6673 13.6912L23.2382 13.9653C23.5074 14.0945 23.6786 14.3665 23.6786 14.6651C23.6786 17.0552 21.741 18.9929 19.3508 18.9929H6.33492C3.94475 18.9929 2.00714 17.0552 2.00714 14.6651C2.00714 14.3665 2.17835 14.0945 2.44749 13.9653L3.0184 13.6912C5.69578 12.4061 5.69578 8.59391 3.0184 7.30877L2.44749 7.03473C2.17835 6.90554 2.00714 6.63346 2.00714 6.33492Z" fill="url(#paint1_linear_119_39495)" fill-opacity="0.1"/>
<path fill-rule="evenodd" clip-rule="evenodd" d="M14.8319 7.58587C14.2117 5.61423 11.474 5.61423 10.8539 7.58587C10.8022 7.75002 10.666 7.83469 10.541 7.83469C8.46118 7.83469 7.72977 10.4971 9.30236 11.6773C9.42124 11.7666 9.48422 11.9402 9.43125 12.1086C9.12862 13.0708 9.51806 13.9746 10.1816 14.4726C10.8492 14.9736 11.8366 15.0897 12.6589 14.4726C12.7706 14.3888 12.9151 14.3888 13.0268 14.4726C13.8491 15.0897 14.8365 14.9736 15.5041 14.4726C16.1677 13.9746 16.5571 13.0708 16.2545 12.1086C16.2015 11.9402 16.2645 11.7666 16.3834 11.6773C17.9559 10.4971 17.2245 7.83469 15.1447 7.83469C15.0197 7.83469 14.8835 7.75002 14.8319 7.58587ZM12.53 8.1131C12.6344 7.78135 13.0513 7.78135 13.1557 8.1131C13.4281 8.97907 14.2212 9.59183 15.1447 9.59183C15.2347 9.59183 15.2923 9.61854 15.3353 9.65288C15.3843 9.69203 15.4309 9.75599 15.4575 9.84065C15.5113 10.0116 15.465 10.1696 15.3286 10.272C14.5992 10.8194 14.3072 11.7742 14.5783 12.6359C14.6379 12.8254 14.5704 12.9763 14.4494 13.0672C14.3874 13.1137 14.3228 13.1339 14.2689 13.1356C14.2224 13.137 14.1602 13.1262 14.0815 13.0672C13.3449 12.5144 12.3408 12.5144 11.6042 13.0672C11.5255 13.1262 11.4633 13.137 11.4168 13.1356C11.3629 13.1339 11.2983 13.1137 11.2363 13.0672C11.1153 12.9763 11.0478 12.8254 11.1074 12.6359C11.3785 11.7742 11.0865 10.8194 10.3571 10.272C10.2207 10.1696 10.1744 10.0116 10.2282 9.84065C10.2548 9.75599 10.3014 9.69203 10.3504 9.65288C10.3934 9.61854 10.451 9.59183 10.541 9.59183C11.4645 9.59183 12.2577 8.97907 12.53 8.1131Z" fill="url(#paint2_angular_119_39495)"/>
<path fill-rule="evenodd" clip-rule="evenodd" d="M14.8319 7.58587C14.2117 5.61423 11.474 5.61423 10.8539 7.58587C10.8022 7.75002 10.666 7.83469 10.541 7.83469C8.46118 7.83469 7.72977 10.4971 9.30236 11.6773C9.42124 11.7666 9.48422 11.9402 9.43125 12.1086C9.12862 13.0708 9.51806 13.9746 10.1816 14.4726C10.8492 14.9736 11.8366 15.0897 12.6589 14.4726C12.7706 14.3888 12.9151 14.3888 13.0268 14.4726C13.8491 15.0897 14.8365 14.9736 15.5041 14.4726C16.1677 13.9746 16.5571 13.0708 16.2545 12.1086C16.2015 11.9402 16.2645 11.7666 16.3834 11.6773C17.9559 10.4971 17.2245 7.83469 15.1447 7.83469C15.0197 7.83469 14.8835 7.75002 14.8319 7.58587ZM12.53 8.1131C12.6344 7.78135 13.0513 7.78135 13.1557 8.1131C13.4281 8.97907 14.2212 9.59183 15.1447 9.59183C15.2347 9.59183 15.2923 9.61854 15.3353 9.65288C15.3843 9.69203 15.4309 9.75599 15.4575 9.84065C15.5113 10.0116 15.465 10.1696 15.3286 10.272C14.5992 10.8194 14.3072 11.7742 14.5783 12.6359C14.6379 12.8254 14.5704 12.9763 14.4494 13.0672C14.3874 13.1137 14.3228 13.1339 14.2689 13.1356C14.2224 13.137 14.1602 13.1262 14.0815 13.0672C13.3449 12.5144 12.3408 12.5144 11.6042 13.0672C11.5255 13.1262 11.4633 13.137 11.4168 13.1356C11.3629 13.1339 11.2983 13.1137 11.2363 13.0672C11.1153 12.9763 11.0478 12.8254 11.1074 12.6359C11.3785 11.7742 11.0865 10.8194 10.3571 10.272C10.2207 10.1696 10.1744 10.0116 10.2282 9.84065C10.2548 9.75599 10.3014 9.69203 10.3504 9.65288C10.3934 9.61854 10.451 9.59183 10.541 9.59183C11.4645 9.59183 12.2577 8.97907 12.53 8.1131Z" fill="url(#paint3_linear_119_39495)" fill-opacity="0.1"/>
<defs>
<radialGradient id="paint0_angular_119_39495" cx="0" cy="0" r="1" gradientUnits="userSpaceOnUse" gradientTransform="translate(12.8425 10.5001) rotate(67.3601) scale(35.2106 27.2929)">
<stop offset="0.158798" stop-color="#FF55FF"/>
<stop offset="0.578175" stop-color="#05CCFF" stop-opacity="0.98"/>
</radialGradient>
<linearGradient id="paint1_linear_119_39495" x1="-15.2904" y1="46.3572" x2="33.0786" y2="12.5044" gradientUnits="userSpaceOnUse">
<stop stop-color="#3E296C" stop-opacity="0.15"/>
<stop offset="1" stop-color="#3F296D"/>
</linearGradient>
<radialGradient id="paint2_angular_119_39495" cx="0" cy="0" r="1" gradientUnits="userSpaceOnUse" gradientTransform="translate(12.8425 10.5001) rotate(67.3601) scale(35.2106 27.2929)">
<stop offset="0.158798" stop-color="#FF55FF"/>
<stop offset="0.578175" stop-color="#05CCFF" stop-opacity="0.98"/>
</radialGradient>
<linearGradient id="paint3_linear_119_39495" x1="-15.2904" y1="46.3572" x2="33.0786" y2="12.5044" gradientUnits="userSpaceOnUse">
<stop stop-color="#3E296C" stop-opacity="0.15"/>
<stop offset="1" stop-color="#3F296D"/>
</linearGradient>
</defs>
</svg>
