<svg width="18" height="23" viewBox="0 0 18 23" fill="none" xmlns="http://www.w3.org/2000/svg">
<path fill-rule="evenodd" clip-rule="evenodd" d="M9 0.75C6.37665 0.75 4.25 2.87665 4.25 5.5V5.75H1C0.585786 5.75 0.25 6.08579 0.25 6.5C0.25 6.91421 0.585786 7.25 1 7.25H17C17.4142 7.25 17.75 6.91421 17.75 6.5C17.75 6.08579 17.4142 5.75 17 5.75H13.75V5.5C13.75 2.87665 11.6234 0.75 9 0.75ZM9 2.25C10.7949 2.25 12.25 3.70507 12.25 5.5V5.75H5.75V5.5C5.75 3.70507 7.20507 2.25 9 2.25Z" fill="#FC7C5F"/>
<path d="M2.74664 8.42906C2.70746 8.0167 2.34142 7.71418 1.92906 7.75336C1.5167 7.79254 1.21418 8.15858 1.25336 8.57094C1.34783 9.56522 1.51833 10.7903 1.73748 12.3651L2.01903 14.3881C2.28819 16.3229 2.44085 17.4201 2.77109 18.319C3.3857 19.9918 4.48205 21.3328 5.89206 21.9278C6.65773 22.2509 7.53352 22.2506 8.83733 22.25H9.16267C10.4665 22.2506 11.3423 22.2509 12.1079 21.9278C13.5179 21.3328 14.6143 19.9918 15.2289 18.319C15.5592 17.4201 15.7118 16.3229 15.981 14.3881L16.2625 12.3651C16.4817 10.7903 16.6522 9.56522 16.7466 8.57094C16.7858 8.15858 16.4833 7.79254 16.0709 7.75336C15.6586 7.71418 15.2925 8.0167 15.2534 8.42906C15.1623 9.38702 14.9965 10.58 14.7744 12.1761L14.512 14.0611C14.2215 16.1488 14.0884 17.0736 13.8209 17.8017C13.305 19.2058 12.4472 20.1566 11.5248 20.5458C11.0746 20.7358 10.5292 20.75 9 20.75C7.47083 20.75 6.92544 20.7358 6.47524 20.5458C5.55279 20.1566 4.69496 19.2058 4.17907 17.8017C3.91156 17.0736 3.77851 16.1488 3.48798 14.0611L3.22564 12.1761C3.00352 10.58 2.83766 9.38703 2.74664 8.42906Z" fill="#FC7C5F"/>
<path d="M7.75 9.5C7.75 9.08579 7.41421 8.75 7 8.75C6.58579 8.75 6.25 9.08579 6.25 9.5V17.5C6.25 17.9142 6.58579 18.25 7 18.25C7.41421 18.25 7.75 17.9142 7.75 17.5V9.5Z" fill="#FC7C5F"/>
<path d="M11.75 9.5C11.75 9.08579 11.4142 8.75 11 8.75C10.5858 8.75 10.25 9.08579 10.25 9.5V17.5C10.25 17.9142 10.5858 18.25 11 18.25C11.4142 18.25 11.75 17.9142 11.75 17.5V9.5Z" fill="#FC7C5F"/>
</svg>
