<svg width="20" height="21" viewBox="0 0 20 21" fill="none" xmlns="http://www.w3.org/2000/svg">
<path d="M8.20552 1.61252C8.60964 1.20685 9.05817 0.870553 9.63134 0.779232C9.75345 0.759777 9.87663 0.75 10 0.75C10.1234 0.75 10.2466 0.759776 10.3687 0.779231C10.9419 0.870553 11.3904 1.20685 11.7945 1.61252C12.1883 2.00784 12.6283 2.56275 13.1614 3.23524L14.5877 5.03403C14.845 5.3586 14.7905 5.83034 14.466 6.08768C14.1414 6.34503 13.6697 6.29054 13.4123 5.96597L12.0145 4.203C11.4563 3.49897 11.0727 3.01697 10.75 2.68952V15.5C10.75 15.9142 10.4142 16.25 10 16.25C9.5858 16.25 9.25001 15.9142 9.25001 15.5V2.68952C8.92735 3.01697 8.54376 3.49897 7.98554 4.203L6.58769 5.96597C6.33035 6.29054 5.85861 6.34503 5.53404 6.08768C5.20947 5.83034 5.15498 5.3586 5.41233 5.03403L6.83857 3.23525C7.37174 2.56278 7.81173 2.00783 8.20552 1.61252Z" fill="#FAFAFA"/>
<path d="M18.6 9.04956C18.3513 8.71837 17.8811 8.65156 17.5499 8.90032C17.2188 9.14909 17.1519 9.61924 17.4007 9.95043C17.9342 10.6607 18.25 11.5424 18.25 12.5V13.5C18.25 14.4577 18.2477 14.8492 18.1977 15.1648C17.9097 16.9834 16.4834 18.4096 14.6649 18.6977C14.3492 18.7477 13.9577 18.75 13 18.75H7.00001C6.04234 18.75 5.65083 18.7477 5.33516 18.6977C3.51662 18.4096 2.09036 16.9834 1.80233 15.1648C1.75234 14.8492 1.75001 14.4577 1.75001 13.5V12.5C1.75001 11.5424 2.06583 10.6607 2.59932 9.95043C2.84808 9.61924 2.78127 9.14909 2.45008 8.90032C2.11888 8.65156 1.64874 8.71837 1.39997 9.04956C0.678072 10.0106 0.250008 11.2064 0.250008 12.5L0.250004 13.5808C0.249937 14.4328 0.249895 14.9518 0.3208 15.3995C0.710487 17.8599 2.64013 19.7895 5.10051 20.1792C5.54819 20.2501 6.06718 20.2501 6.91921 20.25H13.0808C13.9328 20.2501 14.4518 20.2501 14.8995 20.1792C17.3599 19.7895 19.2895 17.8599 19.6792 15.3995C19.7501 14.9518 19.7501 14.4328 19.75 13.5808L19.75 12.5C19.75 11.2064 19.3219 10.0106 18.6 9.04956Z" fill="#FAFAFA"/>
</svg>
