<svg width="16" height="60" viewBox="0 0 16 60" fill="none" xmlns="http://www.w3.org/2000/svg">
<line x1="7.75" y1="22.5" x2="7.75" stroke="url(#paint0_linear_111_4864)" stroke-width="0.5" stroke-dasharray="1 1"/>
<g clip-path="url(#clip0_111_4864)">
<path fill-rule="evenodd" clip-rule="evenodd" d="M7.75 22.75C3.88401 22.75 0.75 25.884 0.75 29.75C0.75 33.616 3.88401 36.75 7.75 36.75C11.616 36.75 14.75 33.616 14.75 29.75C14.75 25.884 11.616 22.75 7.75 22.75ZM1.72674 29.75C1.72674 26.4234 4.42345 23.7267 7.75 23.7267C11.0766 23.7267 13.7733 26.4234 13.7733 29.75C13.7733 33.0766 11.0766 35.7733 7.75 35.7733C4.42345 35.7733 1.72674 33.0766 1.72674 29.75Z" fill="#605080"/>
<path d="M6.83216 27.1037C6.64059 26.9645 6.33137 26.9656 6.1415 27.106C5.95164 27.2464 5.95302 27.4731 6.14459 27.6123L7.29256 28.4465C7.75847 28.785 8.07806 29.018 8.29431 29.2154C8.50438 29.4072 8.57644 29.5304 8.59562 29.6407C8.60766 29.71 8.60766 29.78 8.59562 29.8493C8.57644 29.9596 8.50437 30.0828 8.29431 30.2746C8.07806 30.472 7.75847 30.705 7.29257 31.0435L6.14459 31.8777C5.95302 32.0169 5.95164 32.2436 6.1415 32.384C6.33137 32.5244 6.64059 32.5255 6.83216 32.3863L8.00083 31.5371C8.44099 31.2173 8.80075 30.9559 9.05587 30.723C9.32117 30.4808 9.51322 30.2349 9.56452 29.9399C9.58702 29.8105 9.58702 29.6795 9.56452 29.5501C9.51322 29.2551 9.32117 29.0092 9.05587 28.767C8.80074 28.5341 8.441 28.2727 8.00083 27.9529L6.83216 27.1037Z" fill="white"/>
<path d="M6.83216 27.1037C6.64059 26.9645 6.33137 26.9656 6.1415 27.106C5.95164 27.2464 5.95302 27.4731 6.14459 27.6123L7.29256 28.4465C7.75847 28.785 8.07806 29.018 8.29431 29.2154C8.50438 29.4072 8.57644 29.5304 8.59562 29.6407C8.60766 29.71 8.60766 29.78 8.59562 29.8493C8.57644 29.9596 8.50437 30.0828 8.29431 30.2746C8.07806 30.472 7.75847 30.705 7.29257 31.0435L6.14459 31.8777C5.95302 32.0169 5.95164 32.2436 6.1415 32.384C6.33137 32.5244 6.64059 32.5255 6.83216 32.3863L8.00083 31.5371C8.44099 31.2173 8.80075 30.9559 9.05587 30.723C9.32117 30.4808 9.51322 30.2349 9.56452 29.9399C9.58702 29.8105 9.58702 29.6795 9.56452 29.5501C9.51322 29.2551 9.32117 29.0092 9.05587 28.767C8.80074 28.5341 8.441 28.2727 8.00083 27.9529L6.83216 27.1037Z" fill="url(#paint1_linear_111_4864)"/>
<path d="M6.83216 27.1037C6.64059 26.9645 6.33137 26.9656 6.1415 27.106C5.95164 27.2464 5.95302 27.4731 6.14459 27.6123L7.29256 28.4465C7.75847 28.785 8.07806 29.018 8.29431 29.2154C8.50438 29.4072 8.57644 29.5304 8.59562 29.6407C8.60766 29.71 8.60766 29.78 8.59562 29.8493C8.57644 29.9596 8.50437 30.0828 8.29431 30.2746C8.07806 30.472 7.75847 30.705 7.29257 31.0435L6.14459 31.8777C5.95302 32.0169 5.95164 32.2436 6.1415 32.384C6.33137 32.5244 6.64059 32.5255 6.83216 32.3863L8.00083 31.5371C8.44099 31.2173 8.80075 30.9559 9.05587 30.723C9.32117 30.4808 9.51322 30.2349 9.56452 29.9399C9.58702 29.8105 9.58702 29.6795 9.56452 29.5501C9.51322 29.2551 9.32117 29.0092 9.05587 28.767C8.80074 28.5341 8.441 28.2727 8.00083 27.9529L6.83216 27.1037Z" fill="url(#paint2_linear_111_4864)" fill-opacity="0.2" style="mix-blend-mode:lighten"/>
</g>
<line y1="-0.25" x2="22.5" y2="-0.25" transform="matrix(0 1 1 0 8 37.5)" stroke="url(#paint3_linear_111_4864)" stroke-width="0.5" stroke-dasharray="1 1"/>
<defs>
<linearGradient id="paint0_linear_111_4864" x1="9.00024" y1="22.5" x2="9.00024" y2="-5.15049e-09" gradientUnits="userSpaceOnUse">
<stop stop-color="#605080"/>
<stop offset="1" stop-color="#605080" stop-opacity="0"/>
</linearGradient>
<linearGradient id="paint1_linear_111_4864" x1="9.67093" y1="47.5875" x2="-2.36121" y2="42.5894" gradientUnits="userSpaceOnUse">
<stop stop-color="#272755"/>
<stop offset="0.973958" stop-color="#272755" stop-opacity="0"/>
</linearGradient>
<linearGradient id="paint2_linear_111_4864" x1="6.15221" y1="27.3282" x2="9.82074" y2="27.6738" gradientUnits="userSpaceOnUse">
<stop stop-color="#FF55FF"/>
<stop offset="1" stop-color="#05CCFF"/>
</linearGradient>
<linearGradient id="paint3_linear_111_4864" x1="5.15049e-09" y1="1.00024" x2="22.5" y2="1.00024" gradientUnits="userSpaceOnUse">
<stop stop-color="#605080"/>
<stop offset="1" stop-color="#605080" stop-opacity="0"/>
</linearGradient>
<clipPath id="clip0_111_4864">
<rect width="15" height="15" fill="white" transform="translate(0.5 22.5)"/>
</clipPath>
</defs>
</svg>
