<svg width="18" height="8" viewBox="0 0 18 8" fill="none" xmlns="http://www.w3.org/2000/svg">
<path fill-rule="evenodd" clip-rule="evenodd" d="M3.99988 0C1.79081 0 0 1.79081 0 3.99988C0 6.20895 1.79081 7.99976 3.99988 7.99976C5.83077 7.99976 7.37435 6.76962 7.8492 5.09076H10.5287C10.6091 5.48495 10.5574 5.89962 10.3735 6.26747L10.2967 6.42104C10.0272 6.95991 10.2457 7.61517 10.7845 7.8846C11.3234 8.15403 11.9787 7.9356 12.2481 7.39673L12.3249 7.24318C12.6621 6.56868 12.7974 5.82264 12.7306 5.09076H14.8922C14.9726 5.48495 14.9209 5.89961 14.737 6.26747L14.6602 6.42103C14.3908 6.9599 14.6092 7.61516 15.148 7.88459C15.6869 8.15403 16.3422 7.93561 16.6116 7.39674L16.6884 7.24318C17.2514 6.11711 17.2514 4.79166 16.6884 3.66558C16.4565 3.2019 15.9826 2.909 15.4642 2.909H11.2943C11.2792 2.90869 11.264 2.90868 11.2488 2.909H7.8492C7.37435 1.23014 5.83077 0 3.99988 0ZM2.18175 3.99988C2.18175 2.99576 2.99576 2.18175 3.99988 2.18175C5.004 2.18175 5.81801 2.99576 5.81801 3.99988C5.81801 5.004 5.004 5.81801 3.99988 5.81801C2.99576 5.81801 2.18175 5.004 2.18175 3.99988Z" fill="white"/>
<path fill-rule="evenodd" clip-rule="evenodd" d="M3.99988 0C1.79081 0 0 1.79081 0 3.99988C0 6.20895 1.79081 7.99976 3.99988 7.99976C5.83077 7.99976 7.37435 6.76962 7.8492 5.09076H10.5287C10.6091 5.48495 10.5574 5.89962 10.3735 6.26747L10.2967 6.42104C10.0272 6.95991 10.2457 7.61517 10.7845 7.8846C11.3234 8.15403 11.9787 7.9356 12.2481 7.39673L12.3249 7.24318C12.6621 6.56868 12.7974 5.82264 12.7306 5.09076H14.8922C14.9726 5.48495 14.9209 5.89961 14.737 6.26747L14.6602 6.42103C14.3908 6.9599 14.6092 7.61516 15.148 7.88459C15.6869 8.15403 16.3422 7.93561 16.6116 7.39674L16.6884 7.24318C17.2514 6.11711 17.2514 4.79166 16.6884 3.66558C16.4565 3.2019 15.9826 2.909 15.4642 2.909H11.2943C11.2792 2.90869 11.264 2.90868 11.2488 2.909H7.8492C7.37435 1.23014 5.83077 0 3.99988 0ZM2.18175 3.99988C2.18175 2.99576 2.99576 2.18175 3.99988 2.18175C5.004 2.18175 5.81801 2.99576 5.81801 3.99988C5.81801 5.004 5.004 5.81801 3.99988 5.81801C2.99576 5.81801 2.18175 5.004 2.18175 3.99988Z" fill="url(#paint0_linear_115_4141)"/>
<path fill-rule="evenodd" clip-rule="evenodd" d="M3.99988 0C1.79081 0 0 1.79081 0 3.99988C0 6.20895 1.79081 7.99976 3.99988 7.99976C5.83077 7.99976 7.37435 6.76962 7.8492 5.09076H10.5287C10.6091 5.48495 10.5574 5.89962 10.3735 6.26747L10.2967 6.42104C10.0272 6.95991 10.2457 7.61517 10.7845 7.8846C11.3234 8.15403 11.9787 7.9356 12.2481 7.39673L12.3249 7.24318C12.6621 6.56868 12.7974 5.82264 12.7306 5.09076H14.8922C14.9726 5.48495 14.9209 5.89961 14.737 6.26747L14.6602 6.42103C14.3908 6.9599 14.6092 7.61516 15.148 7.88459C15.6869 8.15403 16.3422 7.93561 16.6116 7.39674L16.6884 7.24318C17.2514 6.11711 17.2514 4.79166 16.6884 3.66558C16.4565 3.2019 15.9826 2.909 15.4642 2.909H11.2943C11.2792 2.90869 11.264 2.90868 11.2488 2.909H7.8492C7.37435 1.23014 5.83077 0 3.99988 0ZM2.18175 3.99988C2.18175 2.99576 2.99576 2.18175 3.99988 2.18175C5.004 2.18175 5.81801 2.99576 5.81801 3.99988C5.81801 5.004 5.004 5.81801 3.99988 5.81801C2.99576 5.81801 2.18175 5.004 2.18175 3.99988Z" fill="url(#paint1_linear_115_4141)" fill-opacity="0.2" style="mix-blend-mode:lighten"/>
<defs>
<linearGradient id="paint0_linear_115_4141" x1="17.5384" y1="30" x2="-6.07204" y2="-2.15585" gradientUnits="userSpaceOnUse">
<stop stop-color="#272755"/>
<stop offset="0.973958" stop-color="#272755" stop-opacity="0"/>
</linearGradient>
<linearGradient id="paint1_linear_115_4141" x1="0.727203" y1="0.478262" x2="16.8696" y2="5.46449" gradientUnits="userSpaceOnUse">
<stop stop-color="#FF55FF"/>
<stop offset="1" stop-color="#05CCFF"/>
</linearGradient>
</defs>
</svg>
