<svg width="22" height="21" viewBox="0 0 22 21" fill="none" xmlns="http://www.w3.org/2000/svg">
<path d="M7.75 8.75C7.75 9.30228 7.30228 9.75 6.75 9.75C6.19772 9.75 5.75 9.30228 5.75 8.75C5.75 8.19772 6.19772 7.75 6.75 7.75C7.30228 7.75 7.75 8.19772 7.75 8.75Z" fill="white"/>
<path d="M11.75 8.75C11.75 9.30228 11.3023 9.75 10.75 9.75C10.1977 9.75 9.75 9.30228 9.75 8.75C9.75 8.19772 10.1977 7.75 10.75 7.75C11.3023 7.75 11.75 8.19772 11.75 8.75Z" fill="white"/>
<path d="M15.75 8.75C15.75 9.30228 15.3023 9.75 14.75 9.75C14.1977 9.75 13.75 9.30228 13.75 8.75C13.75 8.19772 14.1977 7.75 14.75 7.75C15.3023 7.75 15.75 8.19772 15.75 8.75Z" fill="white"/>
<path fill-rule="evenodd" clip-rule="evenodd" d="M16 2.75C16 1.23122 17.2312 0 18.75 0C20.2688 0 21.5 1.23122 21.5 2.75C21.5 4.26878 20.2688 5.5 18.75 5.5C17.2312 5.5 16 4.26878 16 2.75ZM18.75 1.5C18.0596 1.5 17.5 2.05964 17.5 2.75C17.5 3.44036 18.0596 4 18.75 4C19.4404 4 20 3.44036 20 2.75C20 2.05964 19.4404 1.5 18.75 1.5Z" fill="#05CCFF"/>
<path d="M20.407 6.39173C20.8675 6.18186 21.4854 6.45493 21.4925 6.96097C21.5 7.48591 21.5 8.06805 21.5 8.71637L21.5 10.0811C21.5002 11.6297 21.5004 12.5744 21.2677 13.3679C20.7167 15.2471 19.2471 16.7167 17.3679 17.2677C16.5744 17.5004 15.6297 17.5002 14.0811 17.5L13.3854 17.5L13.3251 17.5001C12.4579 17.5056 11.6132 17.7764 10.9043 18.2759L10.8551 18.3109L8.24441 20.1757C6.7399 21.2503 4.76288 19.6984 5.44954 17.9817C5.54183 17.751 5.37191 17.5 5.12341 17.5H4.52166C2.02441 17.5 7.81351e-08 15.4756 7.81351e-08 12.9783V8.71644C-4.69024e-06 7.34472 -8.32975e-06 6.26929 0.0706118 5.40494C0.142522 4.52479 0.291378 3.79768 0.626713 3.13955C1.17798 2.05762 2.05762 1.17798 3.13955 0.626713C3.79768 0.291378 4.52479 0.142522 5.40494 0.0706118C6.26929 -8.3819e-06 7.34472 -4.74838e-06 8.71644 7.95928e-08H12.7836C13.4319 -2.20238e-06 14.0141 -4.05777e-06 14.539 0.00745158C15.0451 0.0146384 15.3181 0.632497 15.1083 1.09302C14.9978 1.33543 14.7616 1.51062 14.4952 1.507C13.9889 1.50013 13.4133 1.5 12.75 1.5H8.75C7.33749 1.5 6.32322 1.50058 5.52708 1.56563C4.7397 1.62996 4.23197 1.75359 3.82054 1.96322C3.02085 2.37068 2.37068 3.02085 1.96322 3.82054C1.75359 4.23197 1.62996 4.7397 1.56563 5.52708C1.50058 6.32322 1.5 7.33749 1.5 8.75V12.9783C1.5 14.6472 2.85284 16 4.52166 16H5.12341C6.43311 16 7.32867 17.3228 6.84226 18.5388C6.71197 18.8645 7.08709 19.159 7.37255 18.9551L9.98329 17.0903L10.0402 17.0497C10.9993 16.3739 12.1422 16.0076 13.3155 16.0001L13.3854 16H13.9342C15.6761 16 16.3863 15.9924 16.9458 15.8283C18.3348 15.421 19.421 14.3348 19.8283 12.9458C19.9924 12.3863 20 11.6761 20 9.93422V8.75C20 8.08666 19.9999 7.51114 19.993 7.0048C19.9894 6.73843 20.1646 6.50221 20.407 6.39173Z" fill="#FAFAFA"/>
</svg>
