<svg width="22" height="25" viewBox="0 0 22 25" fill="none" xmlns="http://www.w3.org/2000/svg">
<path fill-rule="evenodd" clip-rule="evenodd" d="M3.01269 1.50335C3.01454 1.08914 2.68025 0.751856 2.26604 0.750008C1.85183 0.74816 1.51455 1.08244 1.5127 1.49665L1.50365 3.52568C1.50026 4.28057 1.49743 4.91015 1.55271 5.41635C1.61069 5.94728 1.74029 6.43661 2.06926 6.86169C2.14048 6.95372 2.21743 7.04101 2.29962 7.12306C2.38076 7.20408 2.467 7.27998 2.55786 7.35029C2.98294 7.67926 3.47227 7.80886 4.0032 7.86684C4.50939 7.92211 5.13897 7.91929 5.89383 7.9159L7.9229 7.90685C8.3371 7.905 8.67139 7.56772 8.66954 7.15351C8.66769 6.7393 8.33041 6.40501 7.9162 6.40686L5.93049 6.41572C5.12107 6.41933 4.57738 6.42062 4.16604 6.3757C4.13511 6.37232 4.10551 6.36873 4.07717 6.36494C5.77277 4.4531 8.2455 3.25 11 3.25C16.1086 3.25 20.25 7.39137 20.25 12.5C20.25 12.9142 20.5858 13.25 21 13.25C21.4142 13.25 21.75 12.9142 21.75 12.5C21.75 6.56294 16.9371 1.75 11 1.75C7.84724 1.75 5.01093 3.10807 3.04555 5.26878L3.04385 5.25351C2.99893 4.84217 3.00022 4.29848 3.00383 3.48906L3.01269 1.50335Z" fill="#FAFAFA"/>
<path d="M1.75 12.5C1.75 12.0858 1.41421 11.75 1 11.75C0.585786 11.75 0.25 12.0858 0.25 12.5C0.25 18.4371 5.06294 23.25 11 23.25C14.1177 23.25 16.926 21.9219 18.8886 19.803C18.9203 20.1969 18.919 20.7078 18.9157 21.4305L18.9069 23.4162C18.905 23.8305 19.2393 24.1677 19.6535 24.1696C20.0677 24.1714 20.405 23.8371 20.4069 23.4229L20.4159 21.3939C20.4193 20.639 20.4221 20.0094 20.3668 19.5032C20.3089 18.9723 20.1793 18.483 19.8503 18.0579C19.7885 17.9781 19.7225 17.9019 19.6524 17.8295C19.5619 17.7361 19.4648 17.6491 19.3617 17.5693C18.9366 17.2403 18.4473 17.1107 17.9164 17.0528C17.4102 16.9975 16.7806 17.0003 16.0257 17.0037L13.9967 17.0127C13.5824 17.0146 13.2482 17.3519 13.25 17.7661C13.2519 18.1803 13.5891 18.5146 14.0034 18.5127L15.9891 18.5039C16.7985 18.5003 17.3422 18.499 17.7535 18.5439C17.8365 18.553 17.91 18.5636 17.9752 18.5755C16.2784 20.5219 13.783 21.75 11 21.75C5.89137 21.75 1.75 17.6086 1.75 12.5Z" fill="#FAFAFA"/>
</svg>
