<svg width="30" height="33" viewBox="0 0 30 33" fill="none" xmlns="http://www.w3.org/2000/svg">
<path fill-rule="evenodd" clip-rule="evenodd" d="M11.2714 0.25C8.9453 0.25 7.05965 2.13564 7.05965 4.4617C7.05965 5.53794 6.18719 6.4104 5.11095 6.4104H4.64498C2.26723 6.4104 0.149183 8.25006 0.278185 10.8054C0.431351 13.8393 1.1052 18.568 3.56306 23.0472C4.25145 24.3017 5.17082 25.5341 6.16468 26.6824L6.2395 26.7688C7.66923 28.4208 8.86131 29.7982 10.1429 30.7371C11.5213 31.747 12.9926 32.25 14.9482 32.25C16.9039 32.25 18.3752 31.747 19.7536 30.7371C21.0352 29.7982 22.2273 28.4208 23.657 26.7688L23.7318 26.6824C24.7257 25.5341 25.645 24.3017 26.3334 23.0472C28.873 18.4191 29.5063 13.1894 29.6312 9.92904C29.7286 7.38599 27.6256 5.53035 25.2346 5.53035H24.3455C23.5123 5.53035 22.8368 4.85489 22.8368 4.02168C22.8368 1.93864 21.1482 0.25 19.0652 0.25H11.2714ZM9.32266 4.4617C9.32266 3.38547 10.1951 2.51301 11.2714 2.51301H19.0652C19.8984 2.51301 20.5738 3.18846 20.5738 4.02168C20.5738 6.10472 22.2625 7.79335 24.3455 7.79335H25.2346C26.4984 7.79335 27.4123 8.73341 27.3698 9.84241C27.2505 12.9574 26.6431 17.7787 24.3495 21.9586C23.7627 23.0279 22.9502 24.1275 22.0207 25.2014C20.4968 26.962 19.4677 28.1412 18.4162 28.9116C17.4393 29.6273 16.44 29.987 14.9482 29.987C13.4565 29.987 12.4572 29.6273 11.4803 28.9116C10.4287 28.1412 9.3997 26.962 7.87577 25.2014C6.9463 24.1275 6.13379 23.0279 5.54701 21.9586C3.31645 17.8936 2.68232 13.5438 2.53831 10.6913C2.48352 9.60601 3.37749 8.67341 4.64498 8.67341H5.11095C7.43702 8.67341 9.32266 6.78777 9.32266 4.4617Z" fill="#FF59FF"/>
<path fill-rule="evenodd" clip-rule="evenodd" d="M14.948 9.302C12.6567 9.302 10.7992 11.1595 10.7992 13.4508C10.7992 15.3499 12.0751 16.951 13.8165 17.4435V22.5029C13.8165 23.1278 14.3231 23.6344 14.948 23.6344C15.5729 23.6344 16.0795 23.1278 16.0795 22.5029V17.4435C17.8209 16.951 19.0969 15.3499 19.0969 13.4508C19.0969 11.1595 17.2394 9.302 14.948 9.302ZM13.0622 13.4508C13.0622 12.4093 13.9065 11.565 14.948 11.565C15.9896 11.565 16.8339 12.4093 16.8339 13.4508C16.8339 14.4924 15.9896 15.3367 14.948 15.3367C13.9065 15.3367 13.0622 14.4924 13.0622 13.4508Z" fill="#05CCFF"/>
</svg>
