<svg width="33" height="28" viewBox="0 0 33 28" fill="none" xmlns="http://www.w3.org/2000/svg">
<path fill-rule="evenodd" clip-rule="evenodd" d="M24.9669 0.177661C23.3269 -2.08616e-05 21.2597 -1.15353e-05 18.6227 1.90022e-07H15.6209C12.9838 -1.15353e-05 10.9167 -2.08616e-05 9.27673 0.177661C7.60314 0.358983 6.24711 0.735645 5.08931 1.57683C4.38839 2.08609 3.77198 2.70249 3.26273 3.40341C3.04073 3.70898 2.84914 4.03105 2.68439 4.37297C2.15279 5.47621 1.91584 6.75599 1.80042 8.28376C1.68589 9.79981 1.68589 11.6606 1.6859 13.9583V14C1.6859 14.5948 2.16805 15.0769 2.76282 15.0769C3.35759 15.0769 3.83974 14.5948 3.83974 14C3.83974 11.6521 3.84044 9.87169 3.94815 8.44601C3.99405 7.83844 4.05844 7.3139 4.14518 6.85408L6.26525 8.97414C8.60901 11.3179 10.4458 13.1547 12.0716 14.3952C13.7357 15.6648 15.3047 16.4108 17.1218 16.4108C18.9389 16.4108 20.5079 15.6648 22.172 14.3952C23.7978 13.1547 25.6345 11.318 27.9783 8.97421L30.0984 6.85408C30.1852 7.3139 30.2495 7.83844 30.2954 8.44601C30.4031 9.87169 30.4038 11.6521 30.4038 14C30.4038 16.7161 30.4024 18.6667 30.2387 20.1772C30.0772 21.6675 29.7683 22.6011 29.2384 23.3306C28.862 23.8487 28.4064 24.3043 27.8883 24.6807C27.1588 25.2106 26.2252 25.5196 24.7349 25.681C23.2244 25.8447 21.2738 25.8462 18.5577 25.8462H15.6859C15.0911 25.8462 14.609 26.3283 14.609 26.9231C14.609 27.5178 15.0911 28 15.6859 28H18.6227C21.2597 28 23.3269 28 24.9669 27.8223C26.6404 27.641 27.9965 27.2644 29.1543 26.4232C29.8552 25.9139 30.4716 25.2975 30.9809 24.5966C31.822 23.4388 32.1987 22.0828 32.38 20.4092C32.5577 18.7692 32.5577 16.7021 32.5577 14.0651V13.9584C32.5577 11.6606 32.5577 9.79983 32.4432 8.28375C32.3277 6.75599 32.0908 5.47621 31.5592 4.37297C31.3944 4.03105 31.2029 3.70898 30.9809 3.40342C30.4716 2.70249 29.8552 2.08609 29.1543 1.57683C27.9965 0.735645 26.6404 0.358983 24.9669 0.177661ZM7.72997 7.39286L5.00577 4.66867C5.38207 4.1509 5.83748 3.69556 6.35531 3.31933C7.08475 2.78936 8.0184 2.48044 9.50873 2.31898C11.0192 2.15532 12.9698 2.15385 15.6859 2.15385H18.5577C21.2738 2.15385 23.2244 2.15532 24.7349 2.31898C26.2252 2.48044 27.1588 2.78936 27.8883 3.31933C28.4061 3.69556 28.8615 4.1509 29.2378 4.66867L26.5136 7.39286C24.0989 9.80755 22.3629 11.5403 20.8655 12.6828C19.393 13.8063 18.2786 14.2569 17.1218 14.2569C15.965 14.2569 14.8506 13.8063 13.3781 12.6828C11.8807 11.5403 10.1447 9.80755 7.72997 7.39286Z" fill="#FF59FF"/>
<path d="M1.32692 18.6667C0.732155 18.6667 0.25 19.1489 0.25 19.7437C0.25 20.3384 0.732155 20.8206 1.32692 20.8206H5.63462C6.22938 20.8206 6.71154 20.3384 6.71154 19.7437C6.71154 19.1489 6.22938 18.6667 5.63462 18.6667H1.32692Z" fill="#05CCFF"/>
<path d="M1.32692 22.9744C0.732155 22.9744 0.25 23.4566 0.25 24.0514C0.25 24.6461 0.732155 25.1283 1.32692 25.1283H9.94231C10.5371 25.1283 11.0192 24.6461 11.0192 24.0514C11.0192 23.4566 10.5371 22.9744 9.94231 22.9744H1.32692Z" fill="#05CCFF"/>
</svg>
