<svg width="50" height="50" viewBox="0 0 50 50" fill="none" xmlns="http://www.w3.org/2000/svg">
<path d="M25 14.1667V25L17.83 32.17" stroke="#605080" stroke-width="2" stroke-miterlimit="10"/>
<path d="M9.24249 7.79083C6.62582 10.1883 4.55749 13.1742 3.24832 16.5392" stroke="#FF59FF" stroke-width="2" stroke-miterlimit="10"/>
<path d="M14.7675 4.02417C13.4675 4.66 12.235 5.4125 11.0842 6.26917" stroke="#FF59FF" stroke-width="2" stroke-miterlimit="10"/>
<path d="M40.7575 42.2091C43.3742 39.8116 45.4425 36.8258 46.7517 33.4608" stroke="#FF59FF" stroke-width="2" stroke-miterlimit="10"/>
<path d="M35.2325 45.9758C36.5325 45.34 37.765 44.5875 38.9158 43.7308" stroke="#FF59FF" stroke-width="2" stroke-miterlimit="10"/>
<path d="M40.4792 37.6658C36.8117 42.1433 31.2392 45 25 45C13.9542 45 5 36.0458 5 25C5 13.9542 13.9542 5 25 5C30.9217 5 36.3383 7.57667 40 11.6667L42.155 9.51167C42.3758 9.29083 42.6758 9.16667 42.9883 9.16667C43.6392 9.16667 44.1667 9.69417 44.1667 10.345V18.3333C44.1667 19.2542 43.4208 20 42.5 20H34.5117C33.8608 20 33.3333 19.4725 33.3333 18.8217C33.3333 18.5092 33.4575 18.2092 33.6783 17.9883L35.8333 15.8333C33.235 12.765 29.3358 10.8333 25 10.8333C21.2825 10.8333 17.8992 12.265 15.3725 14.6075" stroke="#605080" stroke-width="2" stroke-miterlimit="10"/>
<path d="M21.8133 38.8066C22.8375 39.0425 23.9041 39.1666 25 39.1666" stroke="#05CCFF" stroke-width="2" stroke-miterlimit="10"/>
<path d="M16.7466 36.5159C17.6641 37.175 18.6641 37.7267 19.7275 38.1534" stroke="#05CCFF" stroke-width="2" stroke-miterlimit="10"/>
<path d="M12.6525 31.95C13.2083 32.9358 13.8791 33.8475 14.6458 34.6692" stroke="#05CCFF" stroke-width="2" stroke-miterlimit="10"/>
<path d="M10.9467 26.8016C11.0758 27.8216 11.3142 28.8083 11.6483 29.7483" stroke="#05CCFF" stroke-width="2" stroke-miterlimit="10"/>
<path d="M11.1941 21.8109C10.9583 22.8359 10.8333 23.9034 10.8333 25" stroke="#05CCFF" stroke-width="2" stroke-miterlimit="10"/>
<path d="M13.4067 16.8558C12.7708 17.7592 12.2375 18.7408 11.825 19.7833" stroke="#05CCFF" stroke-width="2" stroke-miterlimit="10"/>
</svg>
