<svg width="50" height="50" viewBox="0 0 50 50" fill="none" xmlns="http://www.w3.org/2000/svg">
<path d="M10.8333 38.3333C10.8333 39.7141 12.3258 40.8333 14.1667 40.8333M14.1667 40.8333C16.0075 40.8333 17.5 39.7141 17.5 38.3333C17.5 36.9525 16.0075 35.8333 14.1667 35.8333C12.3258 35.8333 10.8333 34.7141 10.8333 33.3333C10.8333 31.9525 12.3258 30.8333 14.1667 30.8333M14.1667 40.8333L14.1667 43.3333M14.1667 30.8333C16.0075 30.8333 17.5 31.9525 17.5 33.3333M14.1667 30.8333L14.1667 28.3333" stroke="#05CCFF" stroke-width="2" stroke-miterlimit="10"/>
<path d="M33.75 45.8333H10.4167C8.80583 45.8333 7.5 44.5275 7.5 42.9167V17.5" stroke="#605080" stroke-width="2" stroke-miterlimit="10"/>
<path d="M13.3333 7.50002V7.08335C13.3333 5.47252 14.6392 4.16669 16.25 4.16669H39.5833" stroke="#605080" stroke-width="2" stroke-miterlimit="10"/>
<path d="M39.1667 30H45.4167C47.0275 30 48.3333 28.6942 48.3333 27.0833V25H42.5" stroke="#605080" stroke-width="2" stroke-miterlimit="10"/>
<path d="M25.2 15H1.66667V12.9167C1.66667 11.3058 2.9725 10 4.58334 10H27.9167" stroke="#605080" stroke-width="2" stroke-miterlimit="10"/>
<path d="M24 15C24 15.5523 24.4477 16 25 16C25.5523 16 26 15.5523 26 15H24ZM45.4167 29C44.3581 29 43.5 28.1419 43.5 27.0834H41.5C41.5 29.2465 43.2535 31 45.4167 31V29ZM43.5 27.0834V7.08335H41.5V27.0834H43.5ZM43.5 7.08335C43.5 4.92024 41.7465 3.16669 39.5833 3.16669V5.16669C40.6419 5.16669 41.5 6.0248 41.5 7.08335H43.5ZM39.5833 3.16669C37.4202 3.16669 35.6667 4.92024 35.6667 7.08335H37.6667C37.6667 6.0248 38.5248 5.16669 39.5833 5.16669V3.16669ZM35.6667 7.08335V42.9167H37.6667V7.08335H35.6667ZM35.6667 42.9167C35.6667 43.9752 34.8085 44.8334 33.75 44.8334V46.8334C35.9131 46.8334 37.6667 45.0798 37.6667 42.9167H35.6667ZM33.75 44.8334C32.6915 44.8334 31.8333 43.9752 31.8333 42.9167H29.8333C29.8333 45.0798 31.5869 46.8334 33.75 46.8334V44.8334ZM31.8333 42.9167V12.9167H29.8333V42.9167H31.8333ZM31.8333 12.9167C31.8333 10.7536 30.0798 9.00002 27.9167 9.00002V11C28.9752 11 29.8333 11.8581 29.8333 12.9167H31.8333ZM27.9167 9.00002C25.7535 9.00002 24 10.7536 24 12.9167H26C26 11.8581 26.8581 11 27.9167 11V9.00002ZM24 12.9167V15H26V12.9167H24Z" fill="#605080"/>
<path d="M41.6667 35H40V36.6667H41.6667V35Z" fill="#FF59FF"/>
<path d="M41.6667 38.3333H40V40H41.6667V38.3333Z" fill="#FF59FF"/>
<path d="M41.6667 41.6667H40V43.3334H41.6667V41.6667Z" fill="#FF59FF"/>
</svg>
