<svg width="50" height="50" viewBox="0 0 50 50" fill="none" xmlns="http://www.w3.org/2000/svg">
<path d="M0.833332 34.1667H5C5.92083 34.1667 6.66667 34.9125 6.66667 35.8334V45.8334C6.66667 46.7542 5.92083 47.5 5 47.5H0.833332" stroke="#605080" stroke-width="2" stroke-miterlimit="10"/>
<path d="M4.16667 36.6667H2.5V38.3334H4.16667V36.6667Z" fill="#605080"/>
<path d="M6.66667 36.6667H8.315C8.8325 36.6667 9.31833 36.43 9.63333 36.0192C10.9142 34.3442 14.7442 30 20 30H31.6667C33.0475 30 34.1667 31.1192 34.1667 32.5C34.1667 33.8808 33.0475 35 31.6667 35H21.6667" stroke="#605080" stroke-width="2" stroke-miterlimit="10"/>
<path d="M32.8867 34.6825L45.2317 27.765C45.5425 27.5917 45.9 27.5 46.2558 27.5C47.4033 27.5 48.3333 28.43 48.3333 29.5775C48.3333 30.1942 48.0592 30.7783 47.5858 31.1733L35.9 40.9167C35.3058 41.4117 34.6192 41.7842 33.88 42.0117L25.4842 44.595C24.6108 44.8633 23.7017 45 22.7883 45H6.66667" stroke="#605080" stroke-width="2" stroke-miterlimit="10"/>
<path d="M33.3333 7.5V12.5" stroke="#FF59FF" stroke-width="2" stroke-miterlimit="10"/>
<path d="M30 2.5V7.5" stroke="#FF59FF" stroke-width="2" stroke-miterlimit="10"/>
<path d="M21.6667 18.3333V23.3333" stroke="#05CCFF" stroke-width="2" stroke-miterlimit="10"/>
<path d="M18.3333 24.1666V27.5" stroke="#05CCFF" stroke-width="2" stroke-miterlimit="10"/>
<path d="M15.68 12.6525L18.18 15.1525C19.5067 16.4791 22.3292 15.8066 24.485 13.6516C26.64 11.4958 27.3125 8.67328 25.9858 7.34662L23.4858 4.84662" stroke="#05CCFF" stroke-width="2" stroke-miterlimit="10"/>
<path d="M21.9849 11.1518C24.1403 8.99647 24.8122 6.1739 23.4858 4.84743C22.1593 3.52097 19.3367 4.1929 17.1814 6.34825C15.026 8.5036 14.3541 11.3262 15.6806 12.6526C17.007 13.9791 19.8296 13.3072 21.9849 11.1518Z" stroke="#05CCFF" stroke-width="2" stroke-miterlimit="10"/>
<path d="M31.4125 15.2216L28.0817 16.8933C26.4775 17.6958 26.1942 20.4516 27.4583 23.0816C28.7308 25.7291 31.0875 27.2425 32.7208 26.4616C32.7317 26.4566 36.0867 24.7791 36.0867 24.7791" stroke="#FF59FF" stroke-width="2" stroke-miterlimit="10"/>
<path d="M36.055 24.7941C37.6883 24.0133 37.9808 21.2333 36.7083 18.585C35.4358 15.9375 33.0792 14.4241 31.4458 15.205C29.8125 15.9858 29.52 18.7658 30.7925 21.4141C32.065 24.0625 34.4208 25.5758 36.055 24.7941Z" stroke="#FF59FF" stroke-width="2" stroke-miterlimit="10"/>
<path d="M30 9.16663V10.8333" stroke="#FF59FF" stroke-width="2" stroke-miterlimit="10"/>
</svg>
